M48
;Layer_Color=9474304
;FILE_FORMAT=4:4
METRIC,TZ
;TYPE=PLATED
T01F00S00C0.6000
T03F00S00C0.7112
T04F00S00C0.8000
T05F00S00C0.9000
T06F00S00C0.9500
T07F00S00C1.0000
T08F00S00C1.0160
T09F00S00C1.0200
;TYPE=NON_PLATED
T11F00S00C0.6000
T12F00S00C2.8000
T13F00S00C3.0000
%
T01
X617400Y922590
X629900
X642400
X654900
X667400
X679900
X692400
T03
X635250Y273320
X621000Y376000
X644340Y441170
X589490Y503300
X796000Y446000
X866000
Y306000
X796000
X761000Y376000
X513190Y392970
X481000Y376000
X516000Y306000
X376000
X306000
X274580Y307820
X236000Y306000
X166000
Y446000
X258130Y432190
X306000Y446000
X341000Y376000
X365510Y381520
X435940Y486630
X411000Y516000
X489480Y477700
X516000Y446000
X96000
X26000
X61000Y376000
X26000Y306000
X96000
X61000Y516000
X131000
X96000Y586000
X26000
X61000Y656000
X26000Y726000
X96000
X61000Y796000
X26000Y866000
X96000
X201000Y656000
X271000
X306000Y586000
X427470Y590030
X436700Y560620
X412870Y550500
X516000Y586000
X446000Y726000
X306000
X516000Y866000
X586000
X621000Y796000
X691000
X761000
X726000Y726000
X656000
X796000
X866000
X831000Y656000
X780810Y587140
X729476Y564020
X635030Y598100
X574770Y584450
X564200Y660070
X901000Y796000
T04
X123700Y668070
X136360Y730380
X226080Y771920
X250920Y753690
X362440Y735810
X388070Y739930
X406010Y754280
X407650Y636140
X364240Y653820
X324820Y613250
X489800Y629950
X528980Y652370
X485740Y865340
X722970Y671220
T05
X187880Y374930
X111880
T06
X532660Y756620
X558060
X545360Y743920
T07
X673540Y332760
Y357760
Y382760
X818540
Y332760
T08
X150280Y797680
X175680
X201080
X226480
X251880
X277280
X302680
X328080
X353480
X378880
X404280
X429680
X455080
X480480
X505880
X531280
T09
X908360Y511020
Y536420
Y561820
Y587220
T11
X274070Y902420
X331870
T12
X845280Y487680
X95280
Y797680
X845280
T13
X927410Y268000
X37690Y268530
X38710Y928270
X927590Y929660
M30
