G04*
G04 #@! TF.GenerationSoftware,Altium Limited,Altium Designer,25.7.1 (20)*
G04*
G04 Layer_Physical_Order=2*
G04 Layer_Color=16711680*
%FSLAX44Y44*%
%MOMM*%
G71*
G04*
G04 #@! TF.SameCoordinates,C553E2C7-41F9-40DB-990B-6D54EA4AAFBF*
G04*
G04*
G04 #@! TF.FilePolarity,Positive*
G04*
G01*
G75*
%ADD53C,1.5500*%
%ADD57R,1.5500X1.5500*%
%ADD60C,1.4500*%
G04:AMPARAMS|DCode=62|XSize=2.4mm|YSize=5mm|CornerRadius=1.2mm|HoleSize=0mm|Usage=FLASHONLY|Rotation=270.000|XOffset=0mm|YOffset=0mm|HoleType=Round|Shape=RoundedRectangle|*
%AMROUNDEDRECTD62*
21,1,2.4000,2.6000,0,0,270.0*
21,1,0.0000,5.0000,0,0,270.0*
1,1,2.4000,-1.3000,0.0000*
1,1,2.4000,-1.3000,0.0000*
1,1,2.4000,1.3000,0.0000*
1,1,2.4000,1.3000,0.0000*
%
%ADD62ROUNDEDRECTD62*%
%ADD63C,0.5000*%
%ADD66C,1.2000*%
%ADD67O,0.9000X2.0000*%
%ADD68O,0.9000X1.7000*%
%ADD69R,1.8796X1.8796*%
%ADD70C,2.5000*%
%ADD71C,1.3700*%
%ADD72C,1.8796*%
%ADD73C,0.6000*%
%ADD74C,2.8000*%
%ADD75R,1.3700X1.3700*%
%ADD76R,2.5000X2.5000*%
%ADD77C,1.2700*%
G36*
X42110Y964490D02*
X927450Y964490D01*
X927450Y964490D01*
X927450Y964490D01*
X930333Y964209D01*
X935311Y963108D01*
X940321Y961287D01*
X945051Y958827D01*
X949419Y955772D01*
X953352Y952172D01*
X956780Y948090D01*
X959647Y943595D01*
X961902Y938764D01*
X963508Y933681D01*
X964436Y928431D01*
X964671Y923105D01*
X964440Y920450D01*
X964440Y275850D01*
X964340D01*
X964340Y275850D01*
X964334Y272836D01*
X963535Y266860D01*
X961964Y261040D01*
X959646Y255475D01*
X956621Y250259D01*
X952942Y245484D01*
X948671Y241229D01*
X943880Y237569D01*
X938654Y234564D01*
X933079Y232268D01*
X927253Y230719D01*
X921274Y229944D01*
X918260Y229950D01*
X918260Y230160D01*
X51270D01*
X51179Y230107D01*
X48180Y229698D01*
X42127Y229670D01*
X36123Y230432D01*
X30269Y231972D01*
X24666Y234262D01*
X19410Y237264D01*
X14591Y240926D01*
X10291Y245186D01*
X6584Y249971D01*
X3534Y255198D01*
X1191Y260780D01*
X-402Y266619D01*
X-811Y269618D01*
X-1250Y492490D01*
X910Y923600D01*
X910Y923600D01*
X959Y926580D01*
X1643Y931622D01*
X3055Y936814D01*
X5133Y941777D01*
X7840Y946426D01*
X11132Y950683D01*
X14951Y954473D01*
X19232Y957732D01*
X23902Y960405D01*
X28880Y962445D01*
X34083Y963818D01*
X39420Y964500D01*
X42110Y964490D01*
D02*
G37*
%LPC*%
G36*
X347490Y950618D02*
Y940490D01*
X353785D01*
Y943220D01*
X353527Y945178D01*
X352771Y947002D01*
X351569Y948569D01*
X350002Y949771D01*
X348178Y950527D01*
X347490Y950618D01*
D02*
G37*
G36*
X260990D02*
Y940490D01*
X267285D01*
Y943220D01*
X267027Y945178D01*
X266271Y947002D01*
X265069Y948569D01*
X263502Y949771D01*
X261678Y950527D01*
X260990Y950618D01*
D02*
G37*
G36*
X344950D02*
X344262Y950527D01*
X342438Y949771D01*
X340871Y948569D01*
X339669Y947002D01*
X338913Y945178D01*
X338655Y943220D01*
Y940490D01*
X344950D01*
Y950618D01*
D02*
G37*
G36*
X258450D02*
X257762Y950527D01*
X255938Y949771D01*
X254371Y948569D01*
X253169Y947002D01*
X252413Y945178D01*
X252155Y943220D01*
Y940490D01*
X258450D01*
Y950618D01*
D02*
G37*
G36*
X641130Y931567D02*
X638926Y930977D01*
X636874Y929792D01*
X635198Y928116D01*
X635031Y928094D01*
X634517Y928607D01*
X632803Y929597D01*
X630890Y930110D01*
X628910D01*
X626997Y929597D01*
X625283Y928607D01*
X623650Y927382D01*
X622017Y928607D01*
X620303Y929597D01*
X618390Y930110D01*
X616410D01*
X614497Y929597D01*
X612783Y928607D01*
X611382Y927207D01*
X610392Y925493D01*
X609880Y923580D01*
Y921600D01*
X610392Y919687D01*
X611382Y917973D01*
X612783Y916572D01*
X614497Y915583D01*
X616410Y915070D01*
X618390D01*
X620303Y915583D01*
X622017Y916572D01*
X623650Y917798D01*
X625283Y916572D01*
X626997Y915583D01*
X628910Y915070D01*
X630890D01*
X632803Y915583D01*
X634517Y916572D01*
X635031Y917086D01*
X635198Y917064D01*
X636874Y915388D01*
X638926Y914203D01*
X641130Y913613D01*
Y922590D01*
Y931567D01*
D02*
G37*
G36*
X353785Y937950D02*
X347490D01*
Y927822D01*
X348178Y927913D01*
X350002Y928669D01*
X351569Y929871D01*
X352771Y931438D01*
X353527Y933262D01*
X353785Y935220D01*
Y937950D01*
D02*
G37*
G36*
X267285D02*
X260990D01*
Y927822D01*
X261678Y927913D01*
X263502Y928669D01*
X265069Y929871D01*
X266271Y931438D01*
X267027Y933262D01*
X267285Y935220D01*
Y937950D01*
D02*
G37*
G36*
X344950D02*
X338655D01*
Y935220D01*
X338913Y933262D01*
X339669Y931438D01*
X340871Y929871D01*
X342438Y928669D01*
X344262Y927913D01*
X344950Y927822D01*
Y937950D01*
D02*
G37*
G36*
X258450D02*
X252155D01*
Y935220D01*
X252413Y933262D01*
X253169Y931438D01*
X254371Y929871D01*
X255938Y928669D01*
X257762Y927913D01*
X258450Y927822D01*
Y937950D01*
D02*
G37*
G36*
X643670Y931567D02*
Y922590D01*
Y913613D01*
X645874Y914203D01*
X647926Y915388D01*
X649602Y917064D01*
X649769Y917086D01*
X650283Y916572D01*
X651997Y915583D01*
X653910Y915070D01*
X655890D01*
X657803Y915583D01*
X659517Y916572D01*
X661150Y917798D01*
X662783Y916572D01*
X664497Y915583D01*
X666410Y915070D01*
X668390D01*
X670303Y915583D01*
X672017Y916572D01*
X673650Y917798D01*
X675283Y916572D01*
X676997Y915583D01*
X678910Y915070D01*
X680890D01*
X682803Y915583D01*
X684517Y916572D01*
X686150Y917798D01*
X687783Y916572D01*
X689497Y915583D01*
X691410Y915070D01*
X693390D01*
X695303Y915583D01*
X697017Y916572D01*
X698418Y917973D01*
X699408Y919687D01*
X699920Y921600D01*
Y923580D01*
X699408Y925493D01*
X698418Y927207D01*
X697017Y928607D01*
X695303Y929597D01*
X693390Y930110D01*
X691410D01*
X689497Y929597D01*
X687783Y928607D01*
X686150Y927382D01*
X684517Y928607D01*
X682803Y929597D01*
X680890Y930110D01*
X678910D01*
X676997Y929597D01*
X675283Y928607D01*
X673650Y927382D01*
X672017Y928607D01*
X670303Y929597D01*
X668390Y930110D01*
X666410D01*
X664497Y929597D01*
X662783Y928607D01*
X661150Y927382D01*
X659517Y928607D01*
X657803Y929597D01*
X655890Y930110D01*
X653910D01*
X651997Y929597D01*
X650283Y928607D01*
X649769Y928094D01*
X649602Y928116D01*
X647926Y929792D01*
X645874Y930977D01*
X643670Y931567D01*
D02*
G37*
G36*
X344950Y910417D02*
X344262Y910327D01*
X342438Y909571D01*
X340871Y908369D01*
X339669Y906802D01*
X338932Y905023D01*
X338782Y904964D01*
X335843Y904640D01*
X335702Y904980D01*
X334430Y906252D01*
X332769Y906940D01*
X330971D01*
X329310Y906252D01*
X328038Y904980D01*
X327350Y903319D01*
Y901521D01*
X328038Y899860D01*
X329310Y898588D01*
X330971Y897900D01*
X332769D01*
X334430Y898588D01*
X335655Y899813D01*
X335920Y899807D01*
X338655Y899150D01*
Y898790D01*
X344950D01*
Y910417D01*
D02*
G37*
G36*
X929951Y959660D02*
X925229D01*
X920565Y958921D01*
X916074Y957462D01*
X911867Y955318D01*
X908046Y952543D01*
X904707Y949204D01*
X901932Y945383D01*
X899788Y941176D01*
X898329Y936685D01*
X897590Y932021D01*
Y927299D01*
X898329Y922635D01*
X899788Y918144D01*
X901932Y913937D01*
X904707Y910116D01*
X908046Y906777D01*
X911867Y904002D01*
X916074Y901858D01*
X920565Y900399D01*
X925229Y899660D01*
X929951D01*
X934615Y900399D01*
X939106Y901858D01*
X943313Y904002D01*
X947134Y906777D01*
X950473Y910116D01*
X953248Y913937D01*
X955392Y918144D01*
X956851Y922635D01*
X957590Y927299D01*
Y932021D01*
X956851Y936685D01*
X955392Y941176D01*
X953248Y945383D01*
X950473Y949204D01*
X947134Y952543D01*
X943313Y955318D01*
X939106Y957462D01*
X934615Y958921D01*
X929951Y959660D01*
D02*
G37*
G36*
X347490Y910417D02*
Y898790D01*
X353785D01*
Y903020D01*
X353527Y904978D01*
X352771Y906802D01*
X351569Y908369D01*
X350002Y909571D01*
X348178Y910327D01*
X347490Y910417D01*
D02*
G37*
G36*
X258450D02*
X257762Y910327D01*
X255938Y909571D01*
X254371Y908369D01*
X253169Y906802D01*
X252413Y904978D01*
X252155Y903020D01*
Y898790D01*
X258450D01*
Y910417D01*
D02*
G37*
G36*
X41071Y958270D02*
X36349D01*
X31685Y957531D01*
X27194Y956072D01*
X22987Y953928D01*
X19166Y951153D01*
X15827Y947814D01*
X13052Y943993D01*
X10908Y939786D01*
X9449Y935295D01*
X8710Y930631D01*
Y925909D01*
X9449Y921245D01*
X10908Y916754D01*
X13052Y912547D01*
X15827Y908726D01*
X19166Y905387D01*
X22987Y902612D01*
X27194Y900468D01*
X31685Y899009D01*
X36349Y898270D01*
X41071D01*
X45735Y899009D01*
X50226Y900468D01*
X54433Y902612D01*
X58254Y905387D01*
X61593Y908726D01*
X64368Y912547D01*
X66512Y916754D01*
X67971Y921245D01*
X68710Y925909D01*
Y930631D01*
X67971Y935295D01*
X66512Y939786D01*
X64368Y943993D01*
X61593Y947814D01*
X58254Y951153D01*
X54433Y953928D01*
X50226Y956072D01*
X45735Y957531D01*
X41071Y958270D01*
D02*
G37*
G36*
X260990Y910417D02*
Y898790D01*
X267285D01*
Y899150D01*
X270020Y899807D01*
X270285Y899813D01*
X271510Y898588D01*
X273171Y897900D01*
X274969D01*
X276630Y898588D01*
X277902Y899860D01*
X278590Y901521D01*
Y903319D01*
X277902Y904980D01*
X276630Y906252D01*
X274969Y906940D01*
X273171D01*
X271510Y906252D01*
X270238Y904980D01*
X270097Y904640D01*
X267158Y904964D01*
X267008Y905023D01*
X266271Y906802D01*
X265069Y908369D01*
X263502Y909571D01*
X261678Y910327D01*
X260990Y910417D01*
D02*
G37*
G36*
X353785Y896250D02*
X347490D01*
Y884622D01*
X348178Y884713D01*
X350002Y885469D01*
X351569Y886671D01*
X352771Y888238D01*
X353527Y890062D01*
X353785Y892020D01*
Y896250D01*
D02*
G37*
G36*
X267285D02*
X260990D01*
Y884622D01*
X261678Y884713D01*
X263502Y885469D01*
X265069Y886671D01*
X266271Y888238D01*
X267027Y890062D01*
X267285Y892020D01*
Y896250D01*
D02*
G37*
G36*
X344950D02*
X338655D01*
Y892020D01*
X338913Y890062D01*
X339669Y888238D01*
X340871Y886671D01*
X342438Y885469D01*
X344262Y884713D01*
X344950Y884622D01*
Y896250D01*
D02*
G37*
G36*
X258450D02*
X252155D01*
Y892020D01*
X252413Y890062D01*
X253169Y888238D01*
X254371Y886671D01*
X255938Y885469D01*
X257762Y884713D01*
X258450Y884622D01*
Y896250D01*
D02*
G37*
G36*
X486776Y873210D02*
X484704D01*
X482702Y872674D01*
X480908Y871638D01*
X480362Y871092D01*
X480080Y870985D01*
X479738Y870665D01*
X479430Y870422D01*
X479104Y870210D01*
X478758Y870024D01*
X478388Y869865D01*
X477991Y869733D01*
X477565Y869627D01*
X477107Y869550D01*
X476616Y869502D01*
X476042Y869484D01*
X475941Y869439D01*
X137350D01*
X135781Y869127D01*
X134452Y868238D01*
X120572Y854358D01*
X119683Y853028D01*
X119371Y851460D01*
Y730520D01*
Y677764D01*
X119326Y677662D01*
X119308Y677087D01*
X119262Y676593D01*
X119187Y676128D01*
X119083Y675692D01*
X118953Y675285D01*
X118797Y674902D01*
X118614Y674542D01*
X118405Y674203D01*
X118167Y673880D01*
X117855Y673524D01*
X117769Y673269D01*
X117402Y672902D01*
X116366Y671108D01*
X115830Y669106D01*
Y667034D01*
X116366Y665032D01*
X117402Y663238D01*
X118868Y661772D01*
X120662Y660736D01*
X122664Y660200D01*
X124736D01*
X126738Y660736D01*
X128532Y661772D01*
X129998Y663238D01*
X131034Y665032D01*
X131570Y667034D01*
Y669106D01*
X131034Y671108D01*
X129998Y672902D01*
X129258Y673641D01*
X129139Y673929D01*
X128810Y674256D01*
X128565Y674549D01*
X128350Y674859D01*
X128163Y675192D01*
X128002Y675549D01*
X127867Y675935D01*
X127760Y676352D01*
X127681Y676803D01*
X127633Y677289D01*
X127614Y677863D01*
X127612Y677869D01*
X127614Y677875D01*
X127569Y677973D01*
Y723154D01*
X127569Y723155D01*
X127644Y723359D01*
X127826Y723692D01*
X127970Y723878D01*
X130700Y724735D01*
X130982Y724629D01*
X131528Y724082D01*
X133322Y723046D01*
X135324Y722510D01*
X137396D01*
X139398Y723046D01*
X141192Y724082D01*
X142658Y725548D01*
X143694Y727342D01*
X144230Y729344D01*
Y731416D01*
X143694Y733418D01*
X142658Y735212D01*
X141192Y736678D01*
X139398Y737714D01*
X137396Y738250D01*
X135324D01*
X133322Y737714D01*
X131528Y736678D01*
X130982Y736132D01*
X130700Y736025D01*
X127970Y736882D01*
X127826Y737067D01*
X127644Y737401D01*
X127569Y737605D01*
X127569Y737606D01*
Y849762D01*
X139048Y861241D01*
X475941D01*
X476042Y861196D01*
X476616Y861178D01*
X477107Y861130D01*
X477565Y861053D01*
X477991Y860947D01*
X478388Y860815D01*
X478758Y860656D01*
X479104Y860471D01*
X479430Y860258D01*
X479738Y860015D01*
X480080Y859695D01*
X480362Y859588D01*
X480908Y859042D01*
X482702Y858006D01*
X484704Y857470D01*
X486776D01*
X488778Y858006D01*
X490572Y859042D01*
X492038Y860508D01*
X493074Y862302D01*
X493610Y864304D01*
Y866376D01*
X493074Y868378D01*
X492038Y870172D01*
X490572Y871638D01*
X488778Y872674D01*
X486776Y873210D01*
D02*
G37*
G36*
X149010Y810078D02*
X137882D01*
Y798950D01*
X149010D01*
Y810078D01*
D02*
G37*
G36*
X507317Y808598D02*
X504443D01*
X501666Y807854D01*
X499176Y806417D01*
X497143Y804384D01*
X495706Y801894D01*
X494962Y799117D01*
Y796243D01*
X495706Y793466D01*
X497143Y790976D01*
X499176Y788943D01*
X501666Y787506D01*
X504443Y786762D01*
X507317D01*
X510094Y787506D01*
X512584Y788943D01*
X514617Y790976D01*
X516054Y793466D01*
X516798Y796243D01*
Y799117D01*
X516054Y801894D01*
X514617Y804384D01*
X512584Y806417D01*
X510094Y807854D01*
X507317Y808598D01*
D02*
G37*
G36*
X405717D02*
X402843D01*
X400066Y807854D01*
X397576Y806417D01*
X395543Y804384D01*
X394106Y801894D01*
X393362Y799117D01*
Y796243D01*
X394106Y793466D01*
X395543Y790976D01*
X397576Y788943D01*
X400066Y787506D01*
X402843Y786762D01*
X405717D01*
X408494Y787506D01*
X410984Y788943D01*
X413017Y790976D01*
X414454Y793466D01*
X415198Y796243D01*
Y799117D01*
X414454Y801894D01*
X413017Y804384D01*
X410984Y806417D01*
X408494Y807854D01*
X405717Y808598D01*
D02*
G37*
G36*
X380317D02*
X377443D01*
X374666Y807854D01*
X372176Y806417D01*
X370143Y804384D01*
X368706Y801894D01*
X367962Y799117D01*
Y796243D01*
X368706Y793466D01*
X370143Y790976D01*
X372176Y788943D01*
X374666Y787506D01*
X377443Y786762D01*
X380317D01*
X383094Y787506D01*
X385584Y788943D01*
X387617Y790976D01*
X389054Y793466D01*
X389798Y796243D01*
Y799117D01*
X389054Y801894D01*
X387617Y804384D01*
X385584Y806417D01*
X383094Y807854D01*
X380317Y808598D01*
D02*
G37*
G36*
X354917D02*
X352043D01*
X349266Y807854D01*
X346776Y806417D01*
X344743Y804384D01*
X343306Y801894D01*
X342562Y799117D01*
Y796243D01*
X343306Y793466D01*
X344743Y790976D01*
X346776Y788943D01*
X349266Y787506D01*
X352043Y786762D01*
X354917D01*
X357694Y787506D01*
X360184Y788943D01*
X362217Y790976D01*
X363654Y793466D01*
X364398Y796243D01*
Y799117D01*
X363654Y801894D01*
X362217Y804384D01*
X360184Y806417D01*
X357694Y807854D01*
X354917Y808598D01*
D02*
G37*
G36*
X329517D02*
X326643D01*
X323866Y807854D01*
X321376Y806417D01*
X319343Y804384D01*
X317906Y801894D01*
X317162Y799117D01*
Y796243D01*
X317906Y793466D01*
X319343Y790976D01*
X321376Y788943D01*
X323866Y787506D01*
X326643Y786762D01*
X329517D01*
X332294Y787506D01*
X334784Y788943D01*
X336817Y790976D01*
X338254Y793466D01*
X338998Y796243D01*
Y799117D01*
X338254Y801894D01*
X336817Y804384D01*
X334784Y806417D01*
X332294Y807854D01*
X329517Y808598D01*
D02*
G37*
G36*
X304117D02*
X301243D01*
X298466Y807854D01*
X295976Y806417D01*
X293943Y804384D01*
X292506Y801894D01*
X291762Y799117D01*
Y796243D01*
X292506Y793466D01*
X293943Y790976D01*
X295976Y788943D01*
X298466Y787506D01*
X301243Y786762D01*
X304117D01*
X306894Y787506D01*
X309384Y788943D01*
X311417Y790976D01*
X312854Y793466D01*
X313598Y796243D01*
Y799117D01*
X312854Y801894D01*
X311417Y804384D01*
X309384Y806417D01*
X306894Y807854D01*
X304117Y808598D01*
D02*
G37*
G36*
X278717D02*
X275843D01*
X273066Y807854D01*
X270576Y806417D01*
X268543Y804384D01*
X267106Y801894D01*
X266362Y799117D01*
Y796243D01*
X267106Y793466D01*
X268543Y790976D01*
X270576Y788943D01*
X273066Y787506D01*
X275843Y786762D01*
X278717D01*
X281494Y787506D01*
X283984Y788943D01*
X286017Y790976D01*
X287454Y793466D01*
X288198Y796243D01*
Y799117D01*
X287454Y801894D01*
X286017Y804384D01*
X283984Y806417D01*
X281494Y807854D01*
X278717Y808598D01*
D02*
G37*
G36*
X253317D02*
X250443D01*
X247666Y807854D01*
X245176Y806417D01*
X243143Y804384D01*
X241706Y801894D01*
X240962Y799117D01*
Y796243D01*
X241706Y793466D01*
X243143Y790976D01*
X245176Y788943D01*
X247666Y787506D01*
X250443Y786762D01*
X253317D01*
X256094Y787506D01*
X258584Y788943D01*
X260617Y790976D01*
X262054Y793466D01*
X262798Y796243D01*
Y799117D01*
X262054Y801894D01*
X260617Y804384D01*
X258584Y806417D01*
X256094Y807854D01*
X253317Y808598D01*
D02*
G37*
G36*
X227917D02*
X225043D01*
X222266Y807854D01*
X219776Y806417D01*
X217743Y804384D01*
X216306Y801894D01*
X215562Y799117D01*
Y796243D01*
X216306Y793466D01*
X217743Y790976D01*
X219776Y788943D01*
X222266Y787506D01*
X225043Y786762D01*
X227917D01*
X230694Y787506D01*
X233184Y788943D01*
X235217Y790976D01*
X236654Y793466D01*
X237398Y796243D01*
Y799117D01*
X236654Y801894D01*
X235217Y804384D01*
X233184Y806417D01*
X230694Y807854D01*
X227917Y808598D01*
D02*
G37*
G36*
X202517D02*
X199643D01*
X196866Y807854D01*
X194376Y806417D01*
X192343Y804384D01*
X190906Y801894D01*
X190162Y799117D01*
Y796243D01*
X190906Y793466D01*
X192343Y790976D01*
X194376Y788943D01*
X196866Y787506D01*
X199643Y786762D01*
X202517D01*
X205294Y787506D01*
X207784Y788943D01*
X209817Y790976D01*
X211254Y793466D01*
X211998Y796243D01*
Y799117D01*
X211254Y801894D01*
X209817Y804384D01*
X207784Y806417D01*
X205294Y807854D01*
X202517Y808598D01*
D02*
G37*
G36*
X162678Y810078D02*
X151550D01*
Y797680D01*
Y785282D01*
X162678D01*
Y791471D01*
X163073Y791722D01*
X166943Y790976D01*
X168976Y788943D01*
X171466Y787506D01*
X174243Y786762D01*
X177117D01*
X179894Y787506D01*
X182384Y788943D01*
X184417Y790976D01*
X185854Y793466D01*
X186598Y796243D01*
Y799117D01*
X185854Y801894D01*
X184417Y804384D01*
X182384Y806417D01*
X179894Y807854D01*
X177117Y808598D01*
X174243D01*
X171466Y807854D01*
X168976Y806417D01*
X166943Y804384D01*
X163073Y803638D01*
X162678Y803889D01*
Y810078D01*
D02*
G37*
G36*
X149010Y796410D02*
X137882D01*
Y785282D01*
X149010D01*
Y796410D01*
D02*
G37*
G36*
X846809Y813200D02*
X843751D01*
X840753Y812604D01*
X837928Y811434D01*
X835387Y809735D01*
X833225Y807573D01*
X831526Y805032D01*
X830356Y802207D01*
X829760Y799209D01*
Y796151D01*
X830356Y793153D01*
X831526Y790329D01*
X833225Y787787D01*
X835387Y785625D01*
X837928Y783926D01*
X840753Y782756D01*
X843751Y782160D01*
X846809D01*
X849807Y782756D01*
X852632Y783926D01*
X855173Y785625D01*
X857335Y787787D01*
X859034Y790329D01*
X860204Y793153D01*
X860800Y796151D01*
Y799209D01*
X860204Y802207D01*
X859034Y805032D01*
X857335Y807573D01*
X855173Y809735D01*
X852632Y811434D01*
X849807Y812604D01*
X846809Y813200D01*
D02*
G37*
G36*
X96809D02*
X93751D01*
X90753Y812604D01*
X87928Y811434D01*
X85386Y809735D01*
X83225Y807573D01*
X81526Y805032D01*
X80356Y802207D01*
X79760Y799209D01*
Y796151D01*
X80356Y793153D01*
X81526Y790329D01*
X83225Y787787D01*
X85386Y785625D01*
X87928Y783926D01*
X90753Y782756D01*
X93751Y782160D01*
X96809D01*
X99807Y782756D01*
X102631Y783926D01*
X105173Y785625D01*
X107335Y787787D01*
X109034Y790329D01*
X110204Y793153D01*
X110800Y796151D01*
Y799209D01*
X110204Y802207D01*
X109034Y805032D01*
X107335Y807573D01*
X105173Y809735D01*
X102631Y811434D01*
X99807Y812604D01*
X96809Y813200D01*
D02*
G37*
G36*
X559409Y766870D02*
X559330D01*
Y757890D01*
X568310D01*
Y757969D01*
X567612Y760576D01*
X566262Y762914D01*
X564354Y764822D01*
X562016Y766171D01*
X559409Y766870D01*
D02*
G37*
G36*
X556790D02*
X556711D01*
X554104Y766171D01*
X551766Y764822D01*
X549858Y762914D01*
X548508Y760576D01*
X547810Y757969D01*
Y757890D01*
X556790D01*
Y766870D01*
D02*
G37*
G36*
X227116Y779790D02*
X225044D01*
X223042Y779254D01*
X221248Y778218D01*
X219782Y776752D01*
X218746Y774958D01*
X218210Y772956D01*
Y770884D01*
X218746Y768882D01*
X219782Y767088D01*
X221248Y765622D01*
X223042Y764586D01*
X225044Y764050D01*
X227116D01*
X229118Y764586D01*
X230912Y765622D01*
X231458Y766169D01*
X231740Y766275D01*
X232082Y766595D01*
X232390Y766838D01*
X232716Y767050D01*
X233062Y767236D01*
X233432Y767395D01*
X233829Y767527D01*
X234256Y767633D01*
X234713Y767710D01*
X235204Y767758D01*
X235778Y767775D01*
X235879Y767821D01*
X386672D01*
X396183Y758311D01*
X396222Y758207D01*
X396615Y757788D01*
X396929Y757408D01*
X397198Y757030D01*
X397425Y756654D01*
X397611Y756279D01*
X397761Y755905D01*
X397875Y755529D01*
X397954Y755148D01*
X398001Y754759D01*
X398016Y754290D01*
X398140Y754016D01*
Y753244D01*
X398676Y751242D01*
X399712Y749448D01*
X401178Y747982D01*
X402972Y746946D01*
X404974Y746410D01*
X407046D01*
X409048Y746946D01*
X410842Y747982D01*
X412308Y749448D01*
X413344Y751242D01*
X413880Y753244D01*
Y755316D01*
X413344Y757318D01*
X412308Y759112D01*
X410842Y760578D01*
X409048Y761614D01*
X407046Y762150D01*
X406274D01*
X406000Y762274D01*
X405531Y762289D01*
X405142Y762336D01*
X404761Y762415D01*
X404385Y762529D01*
X404011Y762679D01*
X403636Y762866D01*
X403260Y763092D01*
X402882Y763361D01*
X402502Y763675D01*
X402083Y764068D01*
X401979Y764108D01*
X391268Y774818D01*
X389939Y775707D01*
X388370Y776019D01*
X235879D01*
X235778Y776065D01*
X235204Y776082D01*
X234713Y776130D01*
X234255Y776207D01*
X233829Y776312D01*
X233432Y776445D01*
X233062Y776604D01*
X232716Y776789D01*
X232390Y777002D01*
X232082Y777245D01*
X231740Y777565D01*
X231458Y777672D01*
X230912Y778218D01*
X229118Y779254D01*
X227116Y779790D01*
D02*
G37*
G36*
X568310Y755350D02*
X559330D01*
Y746370D01*
X559409D01*
X562016Y747068D01*
X564354Y748418D01*
X566262Y750326D01*
X567612Y752663D01*
X568310Y755270D01*
Y755350D01*
D02*
G37*
G36*
X251956Y761560D02*
X249884D01*
X247882Y761024D01*
X246088Y759988D01*
X244622Y758522D01*
X243586Y756728D01*
X243050Y754726D01*
Y752654D01*
X243586Y750652D01*
X244622Y748858D01*
X246088Y747392D01*
X247882Y746356D01*
X249884Y745820D01*
X251956D01*
X253958Y746356D01*
X255752Y747392D01*
X256298Y747939D01*
X256580Y748045D01*
X256922Y748365D01*
X257230Y748608D01*
X257556Y748820D01*
X257902Y749006D01*
X258272Y749165D01*
X258669Y749297D01*
X259095Y749403D01*
X259554Y749480D01*
X260044Y749528D01*
X260618Y749546D01*
X260719Y749591D01*
X372612D01*
X378242Y743961D01*
X378282Y743857D01*
X378675Y743438D01*
X378988Y743058D01*
X379258Y742680D01*
X379484Y742303D01*
X379671Y741929D01*
X379821Y741555D01*
X379935Y741179D01*
X380014Y740798D01*
X380061Y740409D01*
X380076Y739940D01*
X380200Y739666D01*
Y738894D01*
X380736Y736892D01*
X381772Y735098D01*
X383238Y733632D01*
X385032Y732596D01*
X387034Y732060D01*
X389106D01*
X391108Y732596D01*
X392902Y733632D01*
X394368Y735098D01*
X395404Y736892D01*
X395940Y738894D01*
Y740966D01*
X395404Y742968D01*
X394368Y744762D01*
X392902Y746228D01*
X391108Y747264D01*
X389106Y747800D01*
X388334D01*
X388060Y747924D01*
X387591Y747939D01*
X387202Y747986D01*
X386821Y748065D01*
X386445Y748179D01*
X386071Y748329D01*
X385696Y748516D01*
X385320Y748742D01*
X384942Y749011D01*
X384562Y749325D01*
X384143Y749718D01*
X384039Y749758D01*
X377208Y756588D01*
X375878Y757477D01*
X374310Y757789D01*
X260719D01*
X260618Y757834D01*
X260044Y757852D01*
X259554Y757900D01*
X259095Y757977D01*
X258669Y758083D01*
X258272Y758215D01*
X257902Y758374D01*
X257556Y758559D01*
X257230Y758772D01*
X256922Y759015D01*
X256580Y759335D01*
X256298Y759442D01*
X255752Y759988D01*
X253958Y761024D01*
X251956Y761560D01*
D02*
G37*
G36*
X724006Y679090D02*
X721934D01*
X719932Y678554D01*
X718138Y677518D01*
X717592Y676972D01*
X717310Y676865D01*
X716968Y676544D01*
X716660Y676302D01*
X716334Y676089D01*
X715988Y675904D01*
X715618Y675745D01*
X715221Y675612D01*
X714794Y675507D01*
X714336Y675430D01*
X713846Y675382D01*
X713272Y675365D01*
X713171Y675319D01*
X627420D01*
X625852Y675007D01*
X624522Y674118D01*
X614572Y664169D01*
X573999D01*
X573898Y664214D01*
X573324Y664232D01*
X572834Y664280D01*
X572375Y664357D01*
X571949Y664463D01*
X571552Y664595D01*
X571182Y664754D01*
X570836Y664939D01*
X570510Y665152D01*
X570202Y665395D01*
X569860Y665715D01*
X569578Y665822D01*
X569032Y666368D01*
X567238Y667404D01*
X565236Y667940D01*
X563164D01*
X561162Y667404D01*
X559368Y666368D01*
X557902Y664902D01*
X556866Y663108D01*
X556330Y661106D01*
Y659034D01*
X556866Y657032D01*
X557902Y655238D01*
X559368Y653772D01*
X561162Y652736D01*
X563164Y652200D01*
X565236D01*
X567238Y652736D01*
X569032Y653772D01*
X569578Y654318D01*
X569860Y654425D01*
X570202Y654745D01*
X570510Y654988D01*
X570836Y655201D01*
X571182Y655386D01*
X571552Y655545D01*
X571949Y655677D01*
X572375Y655783D01*
X572834Y655860D01*
X573324Y655908D01*
X573898Y655926D01*
X573999Y655971D01*
X616270D01*
X617839Y656283D01*
X619168Y657172D01*
X629118Y667121D01*
X713171D01*
X713272Y667076D01*
X713846Y667058D01*
X714336Y667010D01*
X714795Y666933D01*
X715221Y666827D01*
X715618Y666695D01*
X715988Y666536D01*
X716334Y666350D01*
X716660Y666138D01*
X716968Y665895D01*
X717310Y665575D01*
X717592Y665469D01*
X718138Y664922D01*
X719932Y663886D01*
X721934Y663350D01*
X724006D01*
X726008Y663886D01*
X727802Y664922D01*
X729268Y666388D01*
X730304Y668182D01*
X730840Y670184D01*
Y672256D01*
X730304Y674258D01*
X729268Y676052D01*
X727802Y677518D01*
X726008Y678554D01*
X724006Y679090D01*
D02*
G37*
G36*
X532717Y808598D02*
X529843D01*
X527066Y807854D01*
X524576Y806417D01*
X522543Y804384D01*
X521106Y801894D01*
X520362Y799117D01*
Y796243D01*
X521106Y793466D01*
X522543Y790976D01*
X524576Y788943D01*
X524580Y788941D01*
X524617Y788874D01*
X525405Y788244D01*
X526062Y787642D01*
X526629Y787037D01*
X527110Y786432D01*
X527506Y785827D01*
X527823Y785222D01*
X528065Y784614D01*
X528236Y784000D01*
X528338Y783373D01*
X528377Y782641D01*
X528409Y782574D01*
X528390Y782503D01*
X528421Y782450D01*
Y767882D01*
X528376Y767783D01*
X528353Y767167D01*
X528292Y766632D01*
X528190Y766117D01*
X528050Y765618D01*
X527869Y765134D01*
X527646Y764660D01*
X527382Y764197D01*
X527072Y763741D01*
X526716Y763292D01*
X526273Y762811D01*
X526173Y762536D01*
X525642Y762005D01*
X524488Y760005D01*
X523890Y757774D01*
Y755465D01*
X524488Y753235D01*
X525642Y751235D01*
X527275Y749602D01*
X529275Y748447D01*
X531505Y747850D01*
X533815D01*
X534260Y747969D01*
X536709Y745520D01*
X536590Y745074D01*
Y742765D01*
X537188Y740535D01*
X538342Y738535D01*
X538983Y737894D01*
X539093Y737608D01*
X539541Y737137D01*
X539901Y736700D01*
X540213Y736254D01*
X540480Y735800D01*
X540704Y735335D01*
X540886Y734857D01*
X541028Y734363D01*
X541130Y733852D01*
X541193Y733319D01*
X541216Y732702D01*
X541261Y732604D01*
Y656569D01*
X539185Y654831D01*
X536221Y655568D01*
X535278Y657202D01*
X535228Y657252D01*
X535186Y657409D01*
X534895Y657790D01*
X534669Y658137D01*
X534469Y658502D01*
X534295Y658885D01*
X534146Y659290D01*
X534023Y659717D01*
X533925Y660169D01*
X533854Y660647D01*
X533811Y661151D01*
X533795Y661728D01*
X533749Y661830D01*
Y715470D01*
X533437Y717039D01*
X532548Y718368D01*
X484579Y766338D01*
Y782804D01*
X484623Y782898D01*
X484660Y783613D01*
X484757Y784249D01*
X484922Y784894D01*
X485158Y785553D01*
X485467Y786225D01*
X485853Y786913D01*
X486319Y787615D01*
X486866Y788330D01*
X487497Y789057D01*
X488240Y789823D01*
X488355Y790115D01*
X489217Y790976D01*
X490654Y793466D01*
X491398Y796243D01*
Y799117D01*
X490654Y801894D01*
X489217Y804384D01*
X487184Y806417D01*
X484694Y807854D01*
X481917Y808598D01*
X479043D01*
X476266Y807854D01*
X473776Y806417D01*
X471743Y804384D01*
X470306Y801894D01*
X469562Y799117D01*
Y796243D01*
X470306Y793466D01*
X471743Y790976D01*
X472604Y790115D01*
X472720Y789823D01*
X473463Y789057D01*
X474094Y788330D01*
X474641Y787615D01*
X475107Y786913D01*
X475493Y786225D01*
X475802Y785553D01*
X476038Y784894D01*
X476203Y784249D01*
X476300Y783613D01*
X476337Y782898D01*
X476381Y782804D01*
Y764640D01*
X476693Y763072D01*
X477582Y761742D01*
X525551Y713772D01*
Y662514D01*
X525516Y662450D01*
X525535Y662381D01*
X525506Y662316D01*
X525486Y661742D01*
X525436Y661264D01*
X525355Y660826D01*
X525245Y660427D01*
X525109Y660064D01*
X524947Y659733D01*
X524759Y659428D01*
X524544Y659147D01*
X524297Y658885D01*
X523957Y658588D01*
X523847Y658366D01*
X522682Y657202D01*
X521646Y655408D01*
X521110Y653406D01*
Y651334D01*
X521646Y649332D01*
X522682Y647538D01*
X524148Y646072D01*
X525942Y645036D01*
X526203Y644967D01*
X527099Y641620D01*
X509158Y623679D01*
X498731D01*
X496999Y626679D01*
X497134Y626912D01*
X497670Y628914D01*
Y630986D01*
X497134Y632988D01*
X496098Y634782D01*
X495551Y635328D01*
X495445Y635610D01*
X495125Y635952D01*
X494882Y636260D01*
X494669Y636586D01*
X494484Y636932D01*
X494325Y637302D01*
X494193Y637699D01*
X494087Y638125D01*
X494010Y638583D01*
X493962Y639074D01*
X493945Y639648D01*
X493899Y639749D01*
Y733380D01*
X493587Y734949D01*
X492698Y736278D01*
X459179Y769798D01*
Y782804D01*
X459223Y782898D01*
X459260Y783613D01*
X459357Y784249D01*
X459522Y784894D01*
X459757Y785553D01*
X460067Y786225D01*
X460453Y786913D01*
X460919Y787615D01*
X461466Y788330D01*
X462097Y789057D01*
X462840Y789823D01*
X462956Y790115D01*
X463817Y790976D01*
X465254Y793466D01*
X465998Y796243D01*
Y799117D01*
X465254Y801894D01*
X463817Y804384D01*
X461784Y806417D01*
X459294Y807854D01*
X456517Y808598D01*
X453643D01*
X450866Y807854D01*
X448376Y806417D01*
X446343Y804384D01*
X444906Y801894D01*
X444162Y799117D01*
Y796243D01*
X444906Y793466D01*
X446343Y790976D01*
X447205Y790115D01*
X447320Y789823D01*
X448063Y789057D01*
X448694Y788330D01*
X449241Y787615D01*
X449707Y786913D01*
X450093Y786225D01*
X450402Y785553D01*
X450638Y784894D01*
X450803Y784249D01*
X450900Y783613D01*
X450937Y782898D01*
X450981Y782804D01*
Y768100D01*
X451293Y766532D01*
X452182Y765202D01*
X485701Y731682D01*
Y639749D01*
X485656Y639648D01*
X485638Y639074D01*
X485590Y638583D01*
X485513Y638125D01*
X485407Y637699D01*
X485275Y637302D01*
X485116Y636932D01*
X484931Y636586D01*
X484718Y636260D01*
X484475Y635952D01*
X484155Y635610D01*
X484049Y635328D01*
X483502Y634782D01*
X482466Y632988D01*
X481930Y630986D01*
Y628914D01*
X482466Y626912D01*
X482601Y626679D01*
X480869Y623679D01*
X422044D01*
X420476Y623367D01*
X419146Y622478D01*
X414017Y617349D01*
X334619D01*
X334518Y617394D01*
X333944Y617412D01*
X333453Y617460D01*
X332995Y617537D01*
X332569Y617643D01*
X332172Y617775D01*
X331802Y617934D01*
X331456Y618120D01*
X331130Y618332D01*
X330822Y618575D01*
X330480Y618895D01*
X330198Y619002D01*
X329652Y619548D01*
X327858Y620584D01*
X325856Y621120D01*
X323784D01*
X321782Y620584D01*
X319988Y619548D01*
X318522Y618082D01*
X317486Y616288D01*
X316950Y614286D01*
Y612214D01*
X317486Y610212D01*
X318522Y608418D01*
X319988Y606952D01*
X321782Y605916D01*
X323784Y605380D01*
X325856D01*
X327858Y605916D01*
X329652Y606952D01*
X330198Y607499D01*
X330480Y607605D01*
X330822Y607925D01*
X331130Y608168D01*
X331456Y608381D01*
X331802Y608566D01*
X332172Y608725D01*
X332569Y608857D01*
X332995Y608963D01*
X333453Y609040D01*
X333944Y609088D01*
X334518Y609105D01*
X334619Y609151D01*
X415714D01*
X417283Y609463D01*
X418613Y610352D01*
X423742Y615481D01*
X443205D01*
X444353Y612710D01*
X431501Y599857D01*
X431397Y599818D01*
X430978Y599425D01*
X430598Y599112D01*
X430220Y598842D01*
X429843Y598615D01*
X429469Y598429D01*
X429095Y598279D01*
X428719Y598165D01*
X428338Y598086D01*
X427949Y598039D01*
X427480Y598024D01*
X427206Y597900D01*
X426434D01*
X424432Y597364D01*
X422638Y596328D01*
X421172Y594862D01*
X420136Y593068D01*
X419600Y591066D01*
Y588994D01*
X420136Y586992D01*
X420350Y586623D01*
X420342Y586615D01*
X419453Y585285D01*
X419141Y583716D01*
Y559431D01*
X416141Y557699D01*
X415908Y557834D01*
X413906Y558370D01*
X411834D01*
X409832Y557834D01*
X408038Y556798D01*
X407492Y556251D01*
X407210Y556145D01*
X406868Y555825D01*
X406560Y555582D01*
X406234Y555369D01*
X405888Y555184D01*
X405518Y555025D01*
X405121Y554893D01*
X404695Y554787D01*
X404236Y554710D01*
X403746Y554662D01*
X403172Y554645D01*
X403071Y554599D01*
X376440D01*
X374871Y554287D01*
X373542Y553398D01*
X262161Y442018D01*
X262057Y441978D01*
X261638Y441585D01*
X261258Y441271D01*
X260880Y441002D01*
X260504Y440775D01*
X260129Y440589D01*
X259755Y440439D01*
X259379Y440325D01*
X258998Y440246D01*
X258609Y440199D01*
X258140Y440184D01*
X257866Y440060D01*
X257094D01*
X255092Y439524D01*
X253298Y438488D01*
X251832Y437022D01*
X250796Y435228D01*
X250260Y433226D01*
Y431154D01*
X250796Y429152D01*
X251832Y427358D01*
X253298Y425892D01*
X255092Y424856D01*
X257094Y424320D01*
X259166D01*
X261168Y424856D01*
X262962Y425892D01*
X264428Y427358D01*
X265464Y429152D01*
X266000Y431154D01*
Y431926D01*
X266124Y432200D01*
X266139Y432669D01*
X266186Y433058D01*
X266265Y433439D01*
X266379Y433815D01*
X266529Y434189D01*
X266716Y434564D01*
X266942Y434940D01*
X267211Y435318D01*
X267525Y435698D01*
X267918Y436117D01*
X267957Y436221D01*
X378138Y546401D01*
X403071D01*
X403172Y546356D01*
X403746Y546338D01*
X404236Y546290D01*
X404695Y546213D01*
X405121Y546107D01*
X405518Y545975D01*
X405888Y545816D01*
X406234Y545630D01*
X406560Y545418D01*
X406868Y545175D01*
X407210Y544855D01*
X407492Y544748D01*
X408038Y544202D01*
X409832Y543166D01*
X411834Y542630D01*
X413906D01*
X415908Y543166D01*
X416141Y543301D01*
X419141Y541569D01*
Y451888D01*
X362612Y395358D01*
X361723Y394029D01*
X361411Y392460D01*
Y391319D01*
X361366Y391218D01*
X361348Y390644D01*
X361300Y390154D01*
X361223Y389695D01*
X361117Y389269D01*
X360985Y388872D01*
X360826Y388502D01*
X360640Y388156D01*
X360428Y387830D01*
X360185Y387522D01*
X359865Y387180D01*
X359758Y386898D01*
X359212Y386352D01*
X358176Y384558D01*
X357640Y382556D01*
Y380484D01*
X358176Y378482D01*
X359212Y376688D01*
X360678Y375222D01*
X362472Y374186D01*
X364474Y373650D01*
X366546D01*
X368548Y374186D01*
X370342Y375222D01*
X371808Y376688D01*
X372844Y378482D01*
X373380Y380484D01*
Y382556D01*
X372844Y384558D01*
X371808Y386352D01*
X371261Y386898D01*
X371155Y387180D01*
X370835Y387522D01*
X370592Y387830D01*
X370379Y388156D01*
X370194Y388502D01*
X370035Y388872D01*
X369902Y389269D01*
X369797Y389696D01*
X369720Y390154D01*
X369672Y390644D01*
X369667Y390820D01*
X426138Y447292D01*
X427027Y448621D01*
X427339Y450190D01*
Y478450D01*
X429229Y479757D01*
X430507Y479274D01*
X431585Y478731D01*
X431653Y478455D01*
X431730Y477996D01*
X431778Y477506D01*
X431796Y476932D01*
X431841Y476831D01*
Y470220D01*
X432153Y468652D01*
X433042Y467322D01*
X503363Y397001D01*
X503402Y396897D01*
X503795Y396478D01*
X504109Y396098D01*
X504378Y395720D01*
X504604Y395344D01*
X504791Y394969D01*
X504941Y394595D01*
X505055Y394219D01*
X505134Y393838D01*
X505181Y393449D01*
X505196Y392980D01*
X505320Y392706D01*
Y391934D01*
X505856Y389932D01*
X506892Y388138D01*
X508358Y386672D01*
X510152Y385636D01*
X510413Y385566D01*
X511309Y382220D01*
X411428Y282339D01*
X305858D01*
X284408Y303789D01*
X284368Y303893D01*
X283975Y304312D01*
X283661Y304692D01*
X283392Y305070D01*
X283165Y305446D01*
X282979Y305821D01*
X282829Y306195D01*
X282715Y306571D01*
X282636Y306952D01*
X282589Y307341D01*
X282574Y307810D01*
X282450Y308084D01*
Y308856D01*
X281914Y310858D01*
X280878Y312652D01*
X279412Y314118D01*
X277618Y315154D01*
X275616Y315690D01*
X273544D01*
X271542Y315154D01*
X269748Y314118D01*
X268282Y312652D01*
X267246Y310858D01*
X266710Y308856D01*
Y306784D01*
X267246Y304782D01*
X268282Y302988D01*
X269748Y301522D01*
X271542Y300486D01*
X273544Y299950D01*
X274316D01*
X274590Y299826D01*
X275059Y299811D01*
X275448Y299764D01*
X275829Y299685D01*
X276205Y299571D01*
X276579Y299421D01*
X276954Y299234D01*
X277330Y299008D01*
X277708Y298739D01*
X278088Y298425D01*
X278507Y298032D01*
X278611Y297992D01*
X301262Y275342D01*
X302591Y274453D01*
X304160Y274141D01*
X411428D01*
X415147Y270422D01*
X416477Y269533D01*
X418045Y269221D01*
X628529D01*
X628952Y268488D01*
X630418Y267022D01*
X632212Y265986D01*
X634214Y265450D01*
X636286D01*
X638288Y265986D01*
X640082Y267022D01*
X641548Y268488D01*
X641971Y269221D01*
X870170D01*
X871739Y269533D01*
X873068Y270422D01*
X911258Y308612D01*
X912147Y309941D01*
X912459Y311510D01*
Y499054D01*
X912505Y499157D01*
X912528Y500057D01*
X912593Y500793D01*
X912695Y501400D01*
X912822Y501873D01*
X912958Y502205D01*
X913078Y502402D01*
X913159Y502489D01*
X913202Y502517D01*
X913250Y502535D01*
X913532Y502564D01*
X913690Y502650D01*
X916730D01*
Y519390D01*
X899990D01*
Y502650D01*
X903030D01*
X903188Y502564D01*
X903470Y502535D01*
X903519Y502518D01*
X903561Y502489D01*
X903642Y502402D01*
X903762Y502205D01*
X903898Y501873D01*
X904025Y501400D01*
X904127Y500793D01*
X904192Y500057D01*
X904215Y499157D01*
X904261Y499054D01*
Y313208D01*
X868472Y277419D01*
X659102D01*
X657531Y279690D01*
X657336Y280419D01*
X657579Y281640D01*
Y430723D01*
X657267Y432292D01*
X656378Y433621D01*
X653843Y436157D01*
X653831Y436205D01*
X653739Y436262D01*
X653700Y436364D01*
X653309Y436783D01*
X653010Y437155D01*
X652764Y437517D01*
X652567Y437869D01*
X652416Y438213D01*
X652307Y438550D01*
X652236Y438884D01*
X652201Y439222D01*
X652202Y439568D01*
X652249Y440009D01*
X652210Y440140D01*
Y442206D01*
X651674Y444208D01*
X650638Y446002D01*
X649172Y447468D01*
X647378Y448504D01*
X645376Y449040D01*
X643304D01*
X641302Y448504D01*
X639508Y447468D01*
X638042Y446002D01*
X637006Y444208D01*
X636470Y442206D01*
Y440134D01*
X637006Y438132D01*
X638042Y436338D01*
X639508Y434872D01*
X641302Y433836D01*
X643004Y433380D01*
X643198Y433258D01*
X643671Y433176D01*
X644079Y433074D01*
X644482Y432943D01*
X644880Y432782D01*
X645275Y432589D01*
X645669Y432364D01*
X646061Y432104D01*
X646452Y431809D01*
X646842Y431478D01*
X647262Y431080D01*
X647367Y431039D01*
X649381Y429025D01*
Y283338D01*
X644615Y278571D01*
X641548Y278152D01*
X640082Y279618D01*
X638288Y280654D01*
X636286Y281190D01*
X634214D01*
X632212Y280654D01*
X630418Y279618D01*
X628952Y278152D01*
X628529Y277419D01*
X422343D01*
X421101Y280419D01*
X551647Y410965D01*
X551765Y411027D01*
X551790Y411108D01*
X582018Y441336D01*
X582907Y442666D01*
X583219Y444235D01*
Y494369D01*
X586219Y496101D01*
X586452Y495966D01*
X588454Y495430D01*
X590526D01*
X592528Y495966D01*
X594322Y497002D01*
X594868Y497548D01*
X595150Y497655D01*
X595492Y497976D01*
X595800Y498218D01*
X596126Y498430D01*
X596472Y498616D01*
X596842Y498775D01*
X597239Y498908D01*
X597665Y499013D01*
X598124Y499090D01*
X598614Y499138D01*
X599188Y499156D01*
X599289Y499201D01*
X803930D01*
X805499Y499513D01*
X806828Y500402D01*
X838748Y532321D01*
X897715D01*
X897815Y532276D01*
X898414Y532255D01*
X898927Y532199D01*
X899415Y532108D01*
X899878Y531983D01*
X900319Y531823D01*
X900742Y531628D01*
X901149Y531398D01*
X901542Y531129D01*
X901923Y530822D01*
X902337Y530430D01*
X902622Y530321D01*
X903221Y529722D01*
X905129Y528620D01*
X907258Y528050D01*
X909462D01*
X911591Y528620D01*
X913499Y529722D01*
X915058Y531281D01*
X916160Y533189D01*
X916730Y535318D01*
Y537522D01*
X916160Y539651D01*
X915058Y541559D01*
X913499Y543118D01*
X911591Y544220D01*
X909462Y544790D01*
X907258D01*
X905129Y544220D01*
X903221Y543118D01*
X902622Y542519D01*
X902337Y542410D01*
X901923Y542018D01*
X901542Y541710D01*
X901149Y541442D01*
X900742Y541212D01*
X900320Y541017D01*
X899878Y540857D01*
X899415Y540732D01*
X898927Y540641D01*
X898414Y540585D01*
X897815Y540564D01*
X897715Y540519D01*
X837050D01*
X835481Y540207D01*
X834152Y539318D01*
X802232Y507399D01*
X599289D01*
X599188Y507444D01*
X598614Y507462D01*
X598124Y507510D01*
X597665Y507587D01*
X597239Y507693D01*
X596842Y507825D01*
X596472Y507984D01*
X596126Y508170D01*
X595800Y508382D01*
X595492Y508625D01*
X595150Y508945D01*
X594868Y509052D01*
X594322Y509598D01*
X592528Y510634D01*
X592267Y510704D01*
X591371Y514050D01*
X640276Y562954D01*
X645112Y567791D01*
X679771D01*
X686440Y561122D01*
X687770Y560233D01*
X689339Y559921D01*
X719677D01*
X719778Y559875D01*
X720352Y559858D01*
X720843Y559810D01*
X721301Y559733D01*
X721727Y559627D01*
X722124Y559495D01*
X722494Y559336D01*
X722840Y559151D01*
X723166Y558937D01*
X723474Y558695D01*
X723816Y558374D01*
X724098Y558269D01*
X724644Y557722D01*
X726438Y556686D01*
X728440Y556150D01*
X730512D01*
X732514Y556686D01*
X734308Y557722D01*
X735774Y559188D01*
X736810Y560982D01*
X737346Y562984D01*
Y565056D01*
X736810Y567058D01*
X735774Y568852D01*
X734308Y570318D01*
X732514Y571354D01*
X730512Y571890D01*
X728440D01*
X726438Y571354D01*
X724644Y570318D01*
X724098Y569771D01*
X723816Y569665D01*
X723474Y569344D01*
X723166Y569102D01*
X722840Y568890D01*
X722494Y568704D01*
X722124Y568545D01*
X721727Y568413D01*
X721301Y568307D01*
X720843Y568230D01*
X720352Y568182D01*
X719778Y568164D01*
X719677Y568119D01*
X691036D01*
X684367Y574788D01*
X683037Y575677D01*
X681469Y575989D01*
X643415D01*
X642129Y575733D01*
X641640Y575813D01*
X639129Y577469D01*
Y588301D01*
X639174Y588402D01*
X639192Y588976D01*
X639240Y589467D01*
X639317Y589925D01*
X639422Y590351D01*
X639555Y590748D01*
X639714Y591118D01*
X639899Y591464D01*
X640112Y591790D01*
X640355Y592098D01*
X640675Y592440D01*
X640781Y592722D01*
X641328Y593268D01*
X642364Y595062D01*
X642900Y597064D01*
Y599136D01*
X642364Y601138D01*
X641328Y602932D01*
X639862Y604398D01*
X638068Y605434D01*
X637053Y605706D01*
X636886Y606296D01*
X636842Y608868D01*
X636973Y608961D01*
X753192D01*
X770983Y591171D01*
X771022Y591067D01*
X771415Y590648D01*
X771729Y590268D01*
X771998Y589890D01*
X772225Y589514D01*
X772411Y589139D01*
X772561Y588765D01*
X772675Y588389D01*
X772754Y588008D01*
X772801Y587619D01*
X772816Y587150D01*
X772940Y586876D01*
Y586104D01*
X773476Y584102D01*
X774512Y582308D01*
X775978Y580842D01*
X777772Y579806D01*
X779774Y579270D01*
X781846D01*
X783848Y579806D01*
X785642Y580842D01*
X787108Y582308D01*
X788144Y584102D01*
X788680Y586104D01*
Y588176D01*
X788144Y590178D01*
X787108Y591972D01*
X785642Y593438D01*
X783848Y594474D01*
X781846Y595010D01*
X781074D01*
X780800Y595134D01*
X780331Y595149D01*
X779942Y595196D01*
X779561Y595275D01*
X779185Y595389D01*
X778811Y595539D01*
X778436Y595726D01*
X778060Y595952D01*
X777682Y596221D01*
X777302Y596535D01*
X776883Y596928D01*
X776779Y596968D01*
X757788Y615958D01*
X756459Y616847D01*
X754890Y617159D01*
X518150D01*
X517002Y619930D01*
X548258Y651186D01*
X549147Y652516D01*
X549459Y654085D01*
Y732604D01*
X549504Y732702D01*
X549527Y733319D01*
X549590Y733852D01*
X549692Y734363D01*
X549834Y734857D01*
X550016Y735334D01*
X550240Y735800D01*
X550507Y736254D01*
X550819Y736700D01*
X551179Y737137D01*
X551627Y737608D01*
X551737Y737894D01*
X552378Y738535D01*
X553532Y740535D01*
X554130Y742765D01*
Y743956D01*
X556375Y746201D01*
X556622Y746326D01*
X556790Y746353D01*
Y755350D01*
X547794D01*
X547766Y755182D01*
X547642Y754935D01*
X545396Y752690D01*
X544205D01*
X543760Y752571D01*
X541311Y755020D01*
X541430Y755465D01*
Y757774D01*
X540832Y760005D01*
X539678Y762005D01*
X538923Y762759D01*
X538805Y763050D01*
X538351Y763510D01*
X537989Y763936D01*
X537674Y764372D01*
X537406Y764817D01*
X537180Y765274D01*
X536997Y765744D01*
X536853Y766232D01*
X536750Y766740D01*
X536688Y767270D01*
X536664Y767888D01*
X536619Y767986D01*
Y783246D01*
X536663Y783341D01*
X536696Y784031D01*
X536786Y784670D01*
X536940Y785341D01*
X537159Y786043D01*
X537448Y786777D01*
X537808Y787541D01*
X538231Y788317D01*
X539339Y790023D01*
X540003Y790909D01*
X540024Y790988D01*
X541454Y793466D01*
X542198Y796243D01*
Y799117D01*
X541454Y801894D01*
X540017Y804384D01*
X537984Y806417D01*
X535494Y807854D01*
X532717Y808598D01*
D02*
G37*
G36*
X363476Y743680D02*
X361404D01*
X359402Y743144D01*
X357608Y742108D01*
X356142Y740642D01*
X355106Y738848D01*
X354570Y736846D01*
Y734774D01*
X355106Y732772D01*
X356142Y730978D01*
X357573Y729547D01*
X357645Y729415D01*
X357989Y729135D01*
X358234Y728889D01*
X358449Y728624D01*
X358635Y728335D01*
X358797Y728018D01*
X358933Y727667D01*
X359043Y727278D01*
X359125Y726847D01*
X359176Y726373D01*
X359196Y725799D01*
X359239Y725703D01*
X359215Y725601D01*
X359241Y725557D01*
Y663139D01*
X359195Y663036D01*
X359180Y662459D01*
X359138Y661949D01*
X359070Y661465D01*
X358976Y661005D01*
X358857Y660567D01*
X358713Y660153D01*
X358544Y659758D01*
X358352Y659382D01*
X358134Y659023D01*
X357856Y658632D01*
X357807Y658417D01*
X356906Y656858D01*
X356370Y654856D01*
Y652784D01*
X356906Y650782D01*
X357942Y648988D01*
X359408Y647522D01*
X361202Y646486D01*
X363204Y645950D01*
X365276D01*
X367278Y646486D01*
X369072Y647522D01*
X370538Y648988D01*
X371574Y650782D01*
X372110Y652784D01*
Y654856D01*
X371574Y656858D01*
X370538Y658652D01*
X369107Y660083D01*
X369035Y660216D01*
X368691Y660496D01*
X368445Y660741D01*
X368231Y661006D01*
X368045Y661295D01*
X367883Y661612D01*
X367747Y661963D01*
X367637Y662352D01*
X367555Y662783D01*
X367504Y663257D01*
X367484Y663831D01*
X367441Y663927D01*
X367466Y664029D01*
X367439Y664073D01*
Y726490D01*
X367485Y726593D01*
X367500Y727171D01*
X367542Y727681D01*
X367610Y728165D01*
X367704Y728625D01*
X367823Y729063D01*
X367967Y729477D01*
X368135Y729872D01*
X368328Y730248D01*
X368546Y730607D01*
X368824Y730998D01*
X368873Y731213D01*
X369774Y732772D01*
X370310Y734774D01*
Y736846D01*
X369774Y738848D01*
X368738Y740642D01*
X367272Y742108D01*
X365478Y743144D01*
X363476Y743680D01*
D02*
G37*
G36*
X431117Y808598D02*
X428243D01*
X425466Y807854D01*
X422976Y806417D01*
X420943Y804384D01*
X419506Y801894D01*
X418762Y799117D01*
Y796243D01*
X419506Y793466D01*
X420943Y790976D01*
X421805Y790115D01*
X421920Y789823D01*
X422663Y789057D01*
X423294Y788330D01*
X423841Y787615D01*
X424307Y786913D01*
X424693Y786225D01*
X425002Y785553D01*
X425238Y784894D01*
X425403Y784249D01*
X425500Y783613D01*
X425537Y782898D01*
X425581Y782804D01*
Y659868D01*
X411681Y645967D01*
X411577Y645928D01*
X411158Y645535D01*
X410778Y645221D01*
X410400Y644952D01*
X410023Y644725D01*
X409649Y644539D01*
X409275Y644389D01*
X408899Y644275D01*
X408518Y644196D01*
X408129Y644149D01*
X407660Y644134D01*
X407386Y644010D01*
X406614D01*
X404612Y643474D01*
X402818Y642438D01*
X401352Y640972D01*
X400316Y639178D01*
X399780Y637176D01*
Y635104D01*
X400316Y633102D01*
X401352Y631308D01*
X402818Y629842D01*
X404612Y628806D01*
X406614Y628270D01*
X408686D01*
X410688Y628806D01*
X412482Y629842D01*
X413948Y631308D01*
X414984Y633102D01*
X415520Y635104D01*
Y635876D01*
X415644Y636150D01*
X415659Y636619D01*
X415706Y637008D01*
X415785Y637389D01*
X415899Y637765D01*
X416049Y638139D01*
X416236Y638514D01*
X416462Y638890D01*
X416731Y639268D01*
X417045Y639648D01*
X417438Y640067D01*
X417477Y640171D01*
X432578Y655272D01*
X433467Y656601D01*
X433779Y658170D01*
Y782804D01*
X433823Y782898D01*
X433860Y783613D01*
X433957Y784249D01*
X434122Y784894D01*
X434357Y785553D01*
X434667Y786225D01*
X435053Y786913D01*
X435519Y787615D01*
X436066Y788330D01*
X436697Y789057D01*
X437440Y789823D01*
X437556Y790115D01*
X438417Y790976D01*
X439854Y793466D01*
X440598Y796243D01*
Y799117D01*
X439854Y801894D01*
X438417Y804384D01*
X436384Y806417D01*
X433894Y807854D01*
X431117Y808598D01*
D02*
G37*
G36*
X909462Y595590D02*
X907258D01*
X905129Y595020D01*
X903221Y593918D01*
X901662Y592359D01*
X900560Y590451D01*
X899990Y588322D01*
Y586118D01*
X900560Y583989D01*
X901662Y582081D01*
X903221Y580522D01*
X905129Y579420D01*
X907258Y578850D01*
X909462D01*
X911591Y579420D01*
X913499Y580522D01*
X915058Y582081D01*
X916160Y583989D01*
X916730Y586118D01*
Y588322D01*
X916160Y590451D01*
X915058Y592359D01*
X913499Y593918D01*
X911591Y595020D01*
X909462Y595590D01*
D02*
G37*
G36*
X909657Y571670D02*
X909630D01*
Y563090D01*
X918210D01*
Y563117D01*
X917539Y565622D01*
X916242Y567868D01*
X914408Y569702D01*
X912162Y570999D01*
X909657Y571670D01*
D02*
G37*
G36*
X907090D02*
X907063D01*
X904558Y570999D01*
X902312Y569702D01*
X900478Y567868D01*
X899181Y565622D01*
X898510Y563117D01*
Y563090D01*
X907090D01*
Y571670D01*
D02*
G37*
G36*
X918210Y560550D02*
X909630D01*
Y551970D01*
X909657D01*
X912162Y552641D01*
X914408Y553938D01*
X916242Y555772D01*
X917539Y558018D01*
X918210Y560523D01*
Y560550D01*
D02*
G37*
G36*
X907090D02*
X898510D01*
Y560523D01*
X899181Y558018D01*
X900478Y555772D01*
X902312Y553938D01*
X904558Y552641D01*
X907063Y551970D01*
X907090D01*
Y560550D01*
D02*
G37*
G36*
X846809Y503200D02*
X843751D01*
X840753Y502604D01*
X837928Y501434D01*
X835387Y499735D01*
X833225Y497573D01*
X831526Y495032D01*
X830356Y492207D01*
X829760Y489209D01*
Y486151D01*
X830356Y483153D01*
X831526Y480328D01*
X833225Y477787D01*
X835387Y475625D01*
X837928Y473926D01*
X840753Y472756D01*
X843751Y472160D01*
X846809D01*
X849807Y472756D01*
X852632Y473926D01*
X855173Y475625D01*
X857335Y477787D01*
X859034Y480328D01*
X860204Y483153D01*
X860800Y486151D01*
Y489209D01*
X860204Y492207D01*
X859034Y495032D01*
X857335Y497573D01*
X855173Y499735D01*
X852632Y501434D01*
X849807Y502604D01*
X846809Y503200D01*
D02*
G37*
G36*
X96809D02*
X93751D01*
X90753Y502604D01*
X87928Y501434D01*
X85386Y499735D01*
X83225Y497573D01*
X81526Y495032D01*
X80356Y492207D01*
X79760Y489209D01*
Y486151D01*
X80356Y483153D01*
X81526Y480328D01*
X83225Y477787D01*
X85386Y475625D01*
X87928Y473926D01*
X90753Y472756D01*
X93751Y472160D01*
X96809D01*
X99807Y472756D01*
X102631Y473926D01*
X105173Y475625D01*
X107335Y477787D01*
X109034Y480328D01*
X110204Y483153D01*
X110800Y486151D01*
Y489209D01*
X110204Y492207D01*
X109034Y495032D01*
X107335Y497573D01*
X105173Y499735D01*
X102631Y501434D01*
X99807Y502604D01*
X96809Y503200D01*
D02*
G37*
G36*
X761540Y428397D02*
X735540D01*
X732011Y427932D01*
X728722Y426570D01*
X725898Y424403D01*
X723730Y421578D01*
X722368Y418289D01*
X721904Y414760D01*
X722368Y411231D01*
X723730Y407942D01*
X725898Y405117D01*
X728722Y402950D01*
X732011Y401588D01*
X735540Y401123D01*
X761540D01*
X765070Y401588D01*
X768359Y402950D01*
X771183Y405117D01*
X773350Y407942D01*
X774712Y411231D01*
X775177Y414760D01*
X774712Y418289D01*
X773350Y421578D01*
X771183Y424403D01*
X768359Y426570D01*
X765070Y427932D01*
X761540Y428397D01*
D02*
G37*
G36*
X113407Y390430D02*
X113150D01*
Y376200D01*
X127380D01*
Y376457D01*
X126784Y379451D01*
X125616Y382272D01*
X123920Y384811D01*
X121761Y386970D01*
X119222Y388666D01*
X116401Y389834D01*
X113407Y390430D01*
D02*
G37*
G36*
X110610D02*
X110353D01*
X107359Y389834D01*
X104538Y388666D01*
X101999Y386970D01*
X99840Y384811D01*
X98144Y382272D01*
X96976Y379451D01*
X96380Y376457D01*
Y376200D01*
X110610D01*
Y390430D01*
D02*
G37*
G36*
X819760Y392030D02*
X817320D01*
X814962Y391398D01*
X812848Y390178D01*
X811122Y388452D01*
X809902Y386338D01*
X809270Y383980D01*
Y381540D01*
X809902Y379182D01*
X811122Y377068D01*
X812848Y375342D01*
X814962Y374122D01*
X817320Y373490D01*
X819760D01*
X822118Y374122D01*
X824232Y375342D01*
X825958Y377068D01*
X827178Y379182D01*
X827810Y381540D01*
Y383980D01*
X827178Y386338D01*
X825958Y388452D01*
X824232Y390178D01*
X822118Y391398D01*
X819760Y392030D01*
D02*
G37*
G36*
X682810D02*
X664270D01*
Y373490D01*
X682810D01*
Y392030D01*
D02*
G37*
G36*
X201900Y388950D02*
X173860D01*
Y360910D01*
X201900D01*
Y388950D01*
D02*
G37*
G36*
X127380Y373660D02*
X113150D01*
Y359430D01*
X113407D01*
X116401Y360026D01*
X119222Y361194D01*
X121761Y362890D01*
X123920Y365049D01*
X125616Y367588D01*
X126784Y370409D01*
X127380Y373403D01*
Y373660D01*
D02*
G37*
G36*
X110610D02*
X96380D01*
Y373403D01*
X96976Y370409D01*
X98144Y367588D01*
X99840Y365049D01*
X101999Y362890D01*
X104538Y361194D01*
X107359Y360026D01*
X110353Y359430D01*
X110610D01*
Y373660D01*
D02*
G37*
G36*
X674955Y368510D02*
X674810D01*
Y359030D01*
X684290D01*
Y359175D01*
X683558Y361909D01*
X682142Y364360D01*
X680141Y366362D01*
X677689Y367777D01*
X674955Y368510D01*
D02*
G37*
G36*
X672270D02*
X672125D01*
X669391Y367777D01*
X666939Y366362D01*
X664938Y364360D01*
X663523Y361909D01*
X662790Y359175D01*
Y359030D01*
X672270D01*
Y368510D01*
D02*
G37*
G36*
X684290Y356490D02*
X674810D01*
Y347010D01*
X674955D01*
X677689Y347742D01*
X680141Y349158D01*
X682142Y351159D01*
X683558Y353610D01*
X684290Y356344D01*
Y356490D01*
D02*
G37*
G36*
X672270D02*
X662790D01*
Y356344D01*
X663523Y353610D01*
X664938Y351159D01*
X666939Y349158D01*
X669391Y347742D01*
X672125Y347010D01*
X672270D01*
Y356490D01*
D02*
G37*
G36*
X819955Y343510D02*
X819810D01*
Y334030D01*
X829290D01*
Y334175D01*
X828557Y336909D01*
X827142Y339361D01*
X825141Y341362D01*
X822689Y342777D01*
X819955Y343510D01*
D02*
G37*
G36*
X817270D02*
X817125D01*
X814391Y342777D01*
X811939Y341362D01*
X809938Y339361D01*
X808523Y336909D01*
X807790Y334175D01*
Y334030D01*
X817270D01*
Y343510D01*
D02*
G37*
G36*
X674761Y342030D02*
X672320D01*
X669962Y341398D01*
X667848Y340178D01*
X666122Y338452D01*
X664902Y336338D01*
X664270Y333980D01*
Y331540D01*
X664902Y329182D01*
X666122Y327068D01*
X667848Y325342D01*
X669962Y324122D01*
X672320Y323490D01*
X674761D01*
X677118Y324122D01*
X679232Y325342D01*
X680958Y327068D01*
X682178Y329182D01*
X682810Y331540D01*
Y333980D01*
X682178Y336338D01*
X680958Y338452D01*
X679232Y340178D01*
X677118Y341398D01*
X674761Y342030D01*
D02*
G37*
G36*
X829290Y331490D02*
X819810D01*
Y322010D01*
X819955D01*
X822689Y322743D01*
X825141Y324158D01*
X827142Y326159D01*
X828557Y328611D01*
X829290Y331345D01*
Y331490D01*
D02*
G37*
G36*
X817270D02*
X807790D01*
Y331345D01*
X808523Y328611D01*
X809938Y326159D01*
X811939Y324158D01*
X814391Y322743D01*
X817125Y322010D01*
X817270D01*
Y331490D01*
D02*
G37*
G36*
X761540Y314397D02*
X735540D01*
X732011Y313932D01*
X728722Y312570D01*
X725898Y310403D01*
X723730Y307579D01*
X722368Y304290D01*
X721904Y300760D01*
X722368Y297231D01*
X723730Y293942D01*
X725898Y291118D01*
X728722Y288951D01*
X732011Y287588D01*
X735540Y287124D01*
X761540D01*
X765070Y287588D01*
X768359Y288951D01*
X771183Y291118D01*
X773350Y293942D01*
X774712Y297231D01*
X775177Y300760D01*
X774712Y304290D01*
X773350Y307579D01*
X771183Y310403D01*
X768359Y312570D01*
X765070Y313932D01*
X761540Y314397D01*
D02*
G37*
G36*
X40051Y298530D02*
X35329D01*
X30665Y297791D01*
X26174Y296332D01*
X21967Y294188D01*
X18146Y291413D01*
X14807Y288074D01*
X12032Y284253D01*
X9888Y280046D01*
X8429Y275555D01*
X7690Y270891D01*
Y266169D01*
X8429Y261505D01*
X9888Y257014D01*
X12032Y252807D01*
X14807Y248986D01*
X18146Y245647D01*
X21967Y242872D01*
X26174Y240728D01*
X30665Y239269D01*
X35329Y238530D01*
X40051D01*
X44715Y239269D01*
X49206Y240728D01*
X53413Y242872D01*
X57234Y245647D01*
X60573Y248986D01*
X63348Y252807D01*
X65492Y257014D01*
X66951Y261505D01*
X67690Y266169D01*
Y270891D01*
X66951Y275555D01*
X65492Y280046D01*
X63348Y284253D01*
X60573Y288074D01*
X57234Y291413D01*
X53413Y294188D01*
X49206Y296332D01*
X44715Y297791D01*
X40051Y298530D01*
D02*
G37*
G36*
X929771Y298000D02*
X925049D01*
X920385Y297261D01*
X915894Y295802D01*
X911687Y293658D01*
X907866Y290883D01*
X904527Y287544D01*
X901752Y283723D01*
X899608Y279516D01*
X898149Y275025D01*
X897410Y270361D01*
Y265639D01*
X898149Y260975D01*
X899608Y256484D01*
X901752Y252277D01*
X904527Y248456D01*
X907866Y245117D01*
X911687Y242342D01*
X915894Y240198D01*
X920385Y238739D01*
X925049Y238000D01*
X929771D01*
X934435Y238739D01*
X938926Y240198D01*
X943133Y242342D01*
X946954Y245117D01*
X950293Y248456D01*
X953068Y252277D01*
X955212Y256484D01*
X956671Y260975D01*
X957410Y265639D01*
Y270361D01*
X956671Y275025D01*
X955212Y279516D01*
X953068Y283723D01*
X950293Y287544D01*
X946954Y290883D01*
X943133Y293658D01*
X938926Y295802D01*
X934435Y297261D01*
X929771Y298000D01*
D02*
G37*
%LPD*%
G36*
X481205Y860895D02*
X480811Y861264D01*
X480391Y861595D01*
X479944Y861887D01*
X479472Y862140D01*
X478974Y862354D01*
X478450Y862529D01*
X477899Y862665D01*
X477323Y862762D01*
X476721Y862821D01*
X476093Y862840D01*
Y867840D01*
X476721Y867859D01*
X477323Y867918D01*
X477899Y868015D01*
X478450Y868151D01*
X478974Y868326D01*
X479472Y868540D01*
X479944Y868793D01*
X480391Y869085D01*
X480811Y869416D01*
X481205Y869785D01*
Y860895D01*
D02*
G37*
G36*
X131825Y725935D02*
X131431Y726304D01*
X131011Y726635D01*
X130564Y726927D01*
X130092Y727180D01*
X129594Y727394D01*
X129070Y727569D01*
X128519Y727705D01*
X127943Y727802D01*
X127341Y727860D01*
X126713Y727880D01*
Y732880D01*
X127341Y732899D01*
X127943Y732958D01*
X128519Y733055D01*
X129070Y733191D01*
X129594Y733366D01*
X130092Y733580D01*
X130564Y733833D01*
X131011Y734125D01*
X131431Y734455D01*
X131825Y734825D01*
Y725935D01*
D02*
G37*
G36*
X125990Y677181D02*
X126050Y676579D01*
X126151Y676005D01*
X126291Y675459D01*
X126472Y674940D01*
X126693Y674449D01*
X126954Y673986D01*
X127255Y673550D01*
X127596Y673143D01*
X127978Y672763D01*
X119094Y672441D01*
X119450Y672849D01*
X119769Y673280D01*
X120051Y673737D01*
X120295Y674218D01*
X120501Y674723D01*
X120670Y675252D01*
X120801Y675806D01*
X120895Y676384D01*
X120951Y676986D01*
X120970Y677613D01*
X125970Y677810D01*
X125990Y677181D01*
D02*
G37*
G36*
X231009Y775995D02*
X231429Y775665D01*
X231876Y775373D01*
X232348Y775120D01*
X232846Y774906D01*
X233370Y774731D01*
X233921Y774595D01*
X234497Y774498D01*
X235099Y774439D01*
X235727Y774420D01*
Y769420D01*
X235099Y769400D01*
X234497Y769342D01*
X233921Y769245D01*
X233370Y769109D01*
X232846Y768934D01*
X232348Y768720D01*
X231876Y768467D01*
X231429Y768175D01*
X231009Y767844D01*
X230615Y767475D01*
Y776365D01*
X231009Y775995D01*
D02*
G37*
G36*
X401414Y762439D02*
X401881Y762054D01*
X402357Y761716D01*
X402843Y761423D01*
X403337Y761176D01*
X403841Y760975D01*
X404353Y760820D01*
X404875Y760711D01*
X405406Y760647D01*
X405947Y760630D01*
X399660Y754343D01*
X399643Y754884D01*
X399580Y755415D01*
X399470Y755937D01*
X399315Y756449D01*
X399114Y756953D01*
X398867Y757447D01*
X398574Y757933D01*
X398236Y758409D01*
X397851Y758876D01*
X397421Y759334D01*
X400956Y762869D01*
X401414Y762439D01*
D02*
G37*
G36*
X255849Y757766D02*
X256269Y757435D01*
X256716Y757143D01*
X257188Y756890D01*
X257686Y756676D01*
X258210Y756501D01*
X258761Y756365D01*
X259337Y756268D01*
X259939Y756209D01*
X260567Y756190D01*
Y751190D01*
X259939Y751171D01*
X259337Y751112D01*
X258761Y751015D01*
X258210Y750879D01*
X257686Y750704D01*
X257188Y750490D01*
X256716Y750237D01*
X256269Y749945D01*
X255849Y749615D01*
X255455Y749245D01*
Y758135D01*
X255849Y757766D01*
D02*
G37*
G36*
X383474Y748089D02*
X383941Y747704D01*
X384417Y747366D01*
X384903Y747073D01*
X385397Y746826D01*
X385901Y746625D01*
X386413Y746470D01*
X386935Y746360D01*
X387466Y746297D01*
X388007Y746280D01*
X381720Y739994D01*
X381703Y740534D01*
X381639Y741065D01*
X381530Y741587D01*
X381375Y742099D01*
X381174Y742603D01*
X380927Y743097D01*
X380634Y743583D01*
X380296Y744059D01*
X379911Y744526D01*
X379481Y744984D01*
X383016Y748519D01*
X383474Y748089D01*
D02*
G37*
G36*
X718435Y666775D02*
X718041Y667144D01*
X717621Y667475D01*
X717174Y667767D01*
X716702Y668020D01*
X716204Y668234D01*
X715680Y668409D01*
X715129Y668545D01*
X714553Y668642D01*
X713951Y668700D01*
X713323Y668720D01*
Y673720D01*
X713951Y673739D01*
X714553Y673798D01*
X715129Y673895D01*
X715680Y674031D01*
X716204Y674206D01*
X716702Y674420D01*
X717174Y674673D01*
X717621Y674965D01*
X718041Y675295D01*
X718435Y675665D01*
Y666775D01*
D02*
G37*
G36*
X569129Y664146D02*
X569549Y663815D01*
X569996Y663523D01*
X570468Y663270D01*
X570966Y663056D01*
X571490Y662881D01*
X572041Y662745D01*
X572617Y662648D01*
X573219Y662589D01*
X573847Y662570D01*
Y657570D01*
X573219Y657551D01*
X572617Y657492D01*
X572041Y657395D01*
X571490Y657259D01*
X570966Y657084D01*
X570468Y656870D01*
X569996Y656617D01*
X569549Y656325D01*
X569129Y655994D01*
X568735Y655625D01*
Y664515D01*
X569129Y664146D01*
D02*
G37*
G36*
X486284Y790169D02*
X485590Y789370D01*
X484978Y788571D01*
X484448Y787772D01*
X484000Y786973D01*
X483633Y786174D01*
X483347Y785376D01*
X483143Y784578D01*
X483021Y783780D01*
X482980Y782982D01*
X477980D01*
X477939Y783780D01*
X477817Y784578D01*
X477613Y785376D01*
X477327Y786174D01*
X476960Y786973D01*
X476512Y787772D01*
X475981Y788571D01*
X475370Y789370D01*
X474676Y790169D01*
X473901Y790968D01*
X487059D01*
X486284Y790169D01*
D02*
G37*
G36*
X460884D02*
X460190Y789370D01*
X459579Y788571D01*
X459048Y787772D01*
X458600Y786973D01*
X458233Y786174D01*
X457947Y785376D01*
X457743Y784578D01*
X457621Y783780D01*
X457580Y782982D01*
X452580D01*
X452539Y783780D01*
X452417Y784578D01*
X452213Y785376D01*
X451927Y786174D01*
X451560Y786973D01*
X451112Y787772D01*
X450582Y788571D01*
X449970Y789370D01*
X449276Y790169D01*
X448501Y790968D01*
X461659D01*
X460884Y790169D01*
D02*
G37*
G36*
X537990Y790965D02*
X536817Y789161D01*
X536340Y788286D01*
X535937Y787429D01*
X535607Y786590D01*
X535350Y785770D01*
X535167Y784968D01*
X535057Y784185D01*
X535020Y783419D01*
X530020Y782728D01*
X529976Y783550D01*
X529845Y784354D01*
X529626Y785141D01*
X529320Y785910D01*
X528926Y786662D01*
X528445Y787396D01*
X527876Y788113D01*
X527220Y788813D01*
X526476Y789495D01*
X525644Y790159D01*
X538687Y791895D01*
X537990Y790965D01*
D02*
G37*
G36*
X535046Y767142D02*
X535125Y766479D01*
X535255Y765836D01*
X535438Y765213D01*
X535673Y764610D01*
X535961Y764027D01*
X536301Y763464D01*
X536693Y762921D01*
X537137Y762398D01*
X537634Y761894D01*
X527486Y761698D01*
X527967Y762223D01*
X528398Y762766D01*
X528778Y763325D01*
X529108Y763901D01*
X529386Y764495D01*
X529615Y765106D01*
X529792Y765734D01*
X529919Y766380D01*
X529995Y767042D01*
X530020Y767722D01*
X535020Y767825D01*
X535046Y767142D01*
D02*
G37*
G36*
X549946Y738228D02*
X549508Y737695D01*
X549122Y737144D01*
X548787Y736574D01*
X548504Y735986D01*
X548272Y735379D01*
X548092Y734753D01*
X547963Y734109D01*
X547886Y733446D01*
X547860Y732765D01*
X542860D01*
X542834Y733446D01*
X542757Y734109D01*
X542628Y734753D01*
X542448Y735379D01*
X542216Y735986D01*
X541933Y736574D01*
X541598Y737144D01*
X541212Y737695D01*
X540774Y738228D01*
X540285Y738742D01*
X550435D01*
X549946Y738228D01*
D02*
G37*
G36*
X532150Y661682D02*
X532167Y661058D01*
X532219Y660455D01*
X532306Y659874D01*
X532427Y659314D01*
X532582Y658776D01*
X532772Y658260D01*
X532997Y657765D01*
X533256Y657292D01*
X533550Y656840D01*
X533879Y656411D01*
X525038Y657348D01*
X525439Y657699D01*
X525798Y658080D01*
X526115Y658493D01*
X526390Y658937D01*
X526622Y659413D01*
X526812Y659919D01*
X526960Y660458D01*
X527066Y661027D01*
X527129Y661628D01*
X527150Y662261D01*
X532150Y661682D01*
D02*
G37*
G36*
X492319Y638969D02*
X492378Y638367D01*
X492475Y637791D01*
X492611Y637240D01*
X492786Y636716D01*
X493000Y636218D01*
X493253Y635746D01*
X493545Y635299D01*
X493876Y634879D01*
X494245Y634485D01*
X485355D01*
X485725Y634879D01*
X486055Y635299D01*
X486347Y635746D01*
X486600Y636218D01*
X486814Y636716D01*
X486989Y637240D01*
X487125Y637791D01*
X487222Y638367D01*
X487281Y638969D01*
X487300Y639597D01*
X492300D01*
X492319Y638969D01*
D02*
G37*
G36*
X329749Y617326D02*
X330169Y616995D01*
X330616Y616703D01*
X331088Y616450D01*
X331586Y616236D01*
X332110Y616061D01*
X332661Y615925D01*
X333237Y615828D01*
X333839Y615770D01*
X334467Y615750D01*
Y610750D01*
X333839Y610731D01*
X333237Y610672D01*
X332661Y610575D01*
X332110Y610439D01*
X331586Y610264D01*
X331088Y610050D01*
X330616Y609797D01*
X330169Y609505D01*
X329749Y609174D01*
X329355Y608805D01*
Y617695D01*
X329749Y617326D01*
D02*
G37*
G36*
X436059Y595084D02*
X435629Y594626D01*
X435244Y594159D01*
X434906Y593683D01*
X434613Y593197D01*
X434366Y592703D01*
X434165Y592199D01*
X434010Y591687D01*
X433901Y591165D01*
X433837Y590634D01*
X433820Y590093D01*
X427533Y596380D01*
X428074Y596397D01*
X428605Y596461D01*
X429127Y596570D01*
X429639Y596725D01*
X430143Y596926D01*
X430637Y597173D01*
X431123Y597466D01*
X431599Y597804D01*
X432066Y598189D01*
X432524Y598619D01*
X436059Y595084D01*
D02*
G37*
G36*
X639105Y593171D02*
X638775Y592751D01*
X638483Y592304D01*
X638230Y591832D01*
X638016Y591334D01*
X637841Y590810D01*
X637705Y590259D01*
X637608Y589683D01*
X637549Y589081D01*
X637530Y588453D01*
X632530D01*
X632510Y589081D01*
X632452Y589683D01*
X632355Y590259D01*
X632219Y590810D01*
X632044Y591334D01*
X631830Y591832D01*
X631577Y592304D01*
X631285Y592751D01*
X630955Y593171D01*
X630585Y593565D01*
X639475D01*
X639105Y593171D01*
D02*
G37*
G36*
X776214Y595299D02*
X776681Y594914D01*
X777157Y594576D01*
X777643Y594283D01*
X778137Y594036D01*
X778641Y593835D01*
X779154Y593680D01*
X779675Y593571D01*
X780206Y593507D01*
X780747Y593490D01*
X774460Y587203D01*
X774443Y587744D01*
X774380Y588275D01*
X774270Y588797D01*
X774115Y589309D01*
X773914Y589813D01*
X773667Y590307D01*
X773374Y590793D01*
X773036Y591269D01*
X772651Y591736D01*
X772221Y592194D01*
X775756Y595729D01*
X776214Y595299D01*
D02*
G37*
G36*
X574706Y578100D02*
X574166Y578083D01*
X573635Y578019D01*
X573114Y577910D01*
X572601Y577755D01*
X572097Y577554D01*
X571603Y577307D01*
X571117Y577014D01*
X570641Y576676D01*
X570174Y576291D01*
X569716Y575861D01*
X566181Y579396D01*
X566611Y579854D01*
X566996Y580321D01*
X567334Y580797D01*
X567627Y581283D01*
X567874Y581777D01*
X568075Y582281D01*
X568230Y582794D01*
X568340Y583315D01*
X568403Y583846D01*
X568420Y584386D01*
X574706Y578100D01*
D02*
G37*
G36*
X724941Y559575D02*
X724547Y559944D01*
X724127Y560275D01*
X723680Y560567D01*
X723208Y560820D01*
X722710Y561034D01*
X722186Y561209D01*
X721636Y561345D01*
X721059Y561442D01*
X720457Y561501D01*
X719829Y561520D01*
Y566520D01*
X720457Y566539D01*
X721059Y566598D01*
X721636Y566695D01*
X722186Y566831D01*
X722710Y567006D01*
X723208Y567220D01*
X723680Y567473D01*
X724127Y567765D01*
X724547Y568095D01*
X724941Y568465D01*
Y559575D01*
D02*
G37*
G36*
X440775Y555691D02*
X440445Y555271D01*
X440153Y554824D01*
X439900Y554352D01*
X439686Y553854D01*
X439511Y553330D01*
X439375Y552779D01*
X439278Y552203D01*
X439219Y551601D01*
X439200Y550973D01*
X434200D01*
X434180Y551601D01*
X434122Y552203D01*
X434025Y552779D01*
X433889Y553330D01*
X433714Y553854D01*
X433500Y554352D01*
X433247Y554824D01*
X432955Y555271D01*
X432625Y555691D01*
X432255Y556085D01*
X441145D01*
X440775Y555691D01*
D02*
G37*
G36*
X408335Y546055D02*
X407941Y546424D01*
X407521Y546755D01*
X407074Y547047D01*
X406602Y547300D01*
X406104Y547514D01*
X405580Y547689D01*
X405029Y547825D01*
X404453Y547922D01*
X403851Y547980D01*
X403223Y548000D01*
Y553000D01*
X403851Y553019D01*
X404453Y553078D01*
X405029Y553175D01*
X405580Y553311D01*
X406104Y553486D01*
X406602Y553700D01*
X407074Y553953D01*
X407521Y554245D01*
X407941Y554575D01*
X408335Y554945D01*
Y546055D01*
D02*
G37*
G36*
X903468Y531625D02*
X903007Y532061D01*
X902524Y532451D01*
X902020Y532795D01*
X901493Y533094D01*
X900945Y533346D01*
X900374Y533553D01*
X899781Y533713D01*
X899167Y533828D01*
X898531Y533897D01*
X897872Y533920D01*
Y538920D01*
X898531Y538943D01*
X899167Y539012D01*
X899781Y539127D01*
X900374Y539287D01*
X900945Y539494D01*
X901493Y539746D01*
X902020Y540045D01*
X902524Y540389D01*
X903007Y540779D01*
X903468Y541215D01*
Y531625D01*
D02*
G37*
G36*
X912885Y504151D02*
X912460Y504001D01*
X912085Y503750D01*
X911760Y503400D01*
X911485Y502951D01*
X911260Y502401D01*
X911085Y501750D01*
X910960Y501001D01*
X910885Y500150D01*
X910860Y499201D01*
X905860D01*
X905835Y500150D01*
X905760Y501001D01*
X905635Y501750D01*
X905460Y502401D01*
X905235Y502951D01*
X904960Y503400D01*
X904635Y503750D01*
X904260Y504001D01*
X903835Y504151D01*
X903360Y504201D01*
X913360D01*
X912885Y504151D01*
D02*
G37*
G36*
X594419Y507375D02*
X594839Y507045D01*
X595286Y506753D01*
X595758Y506500D01*
X596256Y506286D01*
X596780Y506111D01*
X597331Y505975D01*
X597907Y505878D01*
X598509Y505820D01*
X599137Y505800D01*
Y500800D01*
X598509Y500781D01*
X597907Y500722D01*
X597331Y500625D01*
X596780Y500489D01*
X596256Y500314D01*
X595758Y500100D01*
X595286Y499847D01*
X594839Y499555D01*
X594419Y499225D01*
X594025Y498855D01*
Y507745D01*
X594419Y507375D01*
D02*
G37*
G36*
X440015Y481701D02*
X439685Y481281D01*
X439393Y480834D01*
X439140Y480362D01*
X438926Y479864D01*
X438751Y479340D01*
X438615Y478789D01*
X438518Y478213D01*
X438459Y477611D01*
X438440Y476983D01*
X433440D01*
X433420Y477611D01*
X433362Y478213D01*
X433265Y478789D01*
X433129Y479340D01*
X432954Y479864D01*
X432740Y480362D01*
X432487Y480834D01*
X432195Y481281D01*
X431865Y481701D01*
X431495Y482095D01*
X440385D01*
X440015Y481701D01*
D02*
G37*
G36*
X484945Y473255D02*
X484551Y473625D01*
X484131Y473955D01*
X483684Y474247D01*
X483212Y474500D01*
X482714Y474714D01*
X482190Y474889D01*
X481639Y475025D01*
X481063Y475122D01*
X480461Y475181D01*
X479833Y475200D01*
Y480200D01*
X480461Y480219D01*
X481063Y480278D01*
X481639Y480375D01*
X482190Y480511D01*
X482714Y480686D01*
X483212Y480900D01*
X483684Y481153D01*
X484131Y481445D01*
X484551Y481776D01*
X484945Y482145D01*
Y473255D01*
D02*
G37*
G36*
X650557Y439658D02*
X650555Y439140D01*
X650608Y438629D01*
X650715Y438124D01*
X650876Y437627D01*
X651092Y437136D01*
X651362Y436652D01*
X651686Y436175D01*
X652065Y435704D01*
X652498Y435241D01*
X648394Y432273D01*
X647942Y432702D01*
X647481Y433094D01*
X647012Y433448D01*
X646533Y433765D01*
X646046Y434044D01*
X645550Y434286D01*
X645045Y434490D01*
X644532Y434657D01*
X644010Y434787D01*
X643479Y434879D01*
X650613Y440183D01*
X650557Y439658D01*
D02*
G37*
G36*
X266719Y437244D02*
X266289Y436786D01*
X265904Y436319D01*
X265566Y435843D01*
X265273Y435357D01*
X265026Y434863D01*
X264825Y434359D01*
X264670Y433847D01*
X264561Y433325D01*
X264497Y432794D01*
X264480Y432253D01*
X258193Y438540D01*
X258734Y438557D01*
X259265Y438620D01*
X259786Y438730D01*
X260299Y438885D01*
X260803Y439086D01*
X261297Y439333D01*
X261783Y439626D01*
X262259Y439964D01*
X262726Y440349D01*
X263184Y440779D01*
X266719Y437244D01*
D02*
G37*
G36*
X633218Y608868D02*
X633007Y605706D01*
X631992Y605434D01*
X630198Y604398D01*
X628732Y602932D01*
X627696Y601138D01*
X627160Y599136D01*
Y597064D01*
X627696Y595062D01*
X628732Y593268D01*
X629278Y592722D01*
X629385Y592440D01*
X629705Y592098D01*
X629948Y591790D01*
X630160Y591464D01*
X630346Y591118D01*
X630505Y590748D01*
X630637Y590351D01*
X630743Y589925D01*
X630820Y589467D01*
X630868Y588976D01*
X630886Y588402D01*
X630931Y588301D01*
Y568200D01*
X631243Y566632D01*
X631690Y565962D01*
X576222Y510494D01*
X575333Y509164D01*
X575021Y507595D01*
Y445932D01*
X555829Y426740D01*
X552829Y427982D01*
Y556712D01*
X570739Y574622D01*
X570843Y574662D01*
X571262Y575055D01*
X571642Y575368D01*
X572020Y575638D01*
X572397Y575864D01*
X572771Y576051D01*
X573145Y576201D01*
X573521Y576315D01*
X573902Y576394D01*
X574291Y576441D01*
X574760Y576456D01*
X575034Y576580D01*
X575806D01*
X577808Y577116D01*
X579602Y578152D01*
X581068Y579618D01*
X582104Y581412D01*
X582640Y583414D01*
Y585486D01*
X582104Y587488D01*
X581068Y589282D01*
X579602Y590748D01*
X577808Y591784D01*
X575806Y592320D01*
X573734D01*
X571732Y591784D01*
X569938Y590748D01*
X568472Y589282D01*
X567436Y587488D01*
X566900Y585486D01*
Y584714D01*
X566776Y584440D01*
X566761Y583971D01*
X566714Y583582D01*
X566635Y583201D01*
X566521Y582825D01*
X566371Y582451D01*
X566184Y582076D01*
X565958Y581700D01*
X565689Y581322D01*
X565375Y580942D01*
X564982Y580523D01*
X564943Y580419D01*
X545832Y561308D01*
X544943Y559978D01*
X544631Y558410D01*
Y420038D01*
X544586Y419939D01*
X544553Y419015D01*
X544460Y418184D01*
X544308Y417385D01*
X544096Y416617D01*
X543825Y415877D01*
X543493Y415161D01*
X543100Y414468D01*
X542643Y413795D01*
X542120Y413143D01*
X541490Y412466D01*
X541472Y412418D01*
X541427Y412394D01*
X541403Y412314D01*
X523940Y394851D01*
X520593Y395747D01*
X520524Y396008D01*
X519488Y397802D01*
X518022Y399268D01*
X516228Y400304D01*
X514226Y400840D01*
X513454D01*
X513180Y400964D01*
X512711Y400979D01*
X512322Y401026D01*
X511941Y401105D01*
X511565Y401219D01*
X511191Y401369D01*
X510816Y401556D01*
X510440Y401782D01*
X510062Y402051D01*
X509682Y402365D01*
X509263Y402758D01*
X509159Y402798D01*
X440039Y471918D01*
Y476831D01*
X440084Y476932D01*
X440102Y477506D01*
X440150Y477996D01*
X440227Y478455D01*
X440332Y478881D01*
X440465Y479278D01*
X440624Y479648D01*
X440810Y479994D01*
X441022Y480320D01*
X441265Y480628D01*
X441585Y480970D01*
X441692Y481252D01*
X442238Y481798D01*
X443274Y483592D01*
X443810Y485594D01*
Y487666D01*
X443274Y489668D01*
X442238Y491462D01*
X440772Y492928D01*
X438978Y493964D01*
X436976Y494500D01*
X434904D01*
X432902Y493964D01*
X431108Y492928D01*
X430339Y492159D01*
X427445Y493108D01*
X427339Y493188D01*
Y555094D01*
X430339Y555898D01*
X430402Y555788D01*
X430948Y555242D01*
X431055Y554960D01*
X431375Y554618D01*
X431618Y554310D01*
X431830Y553984D01*
X432016Y553638D01*
X432175Y553268D01*
X432307Y552871D01*
X432413Y552444D01*
X432490Y551987D01*
X432538Y551496D01*
X432556Y550922D01*
X432601Y550821D01*
Y514810D01*
X432913Y513241D01*
X433802Y511912D01*
X470912Y474802D01*
X472241Y473913D01*
X473810Y473601D01*
X479681D01*
X479782Y473555D01*
X480356Y473538D01*
X480846Y473490D01*
X481305Y473413D01*
X481731Y473307D01*
X482128Y473175D01*
X482498Y473016D01*
X482844Y472831D01*
X483170Y472618D01*
X483478Y472375D01*
X483820Y472055D01*
X484102Y471949D01*
X484648Y471402D01*
X486442Y470366D01*
X488444Y469830D01*
X490516D01*
X492518Y470366D01*
X494312Y471402D01*
X495778Y472868D01*
X496814Y474662D01*
X497350Y476664D01*
Y478736D01*
X496814Y480738D01*
X495778Y482532D01*
X494312Y483998D01*
X492518Y485034D01*
X490516Y485570D01*
X488444D01*
X486442Y485034D01*
X484648Y483998D01*
X484102Y483451D01*
X483820Y483345D01*
X483478Y483025D01*
X483170Y482782D01*
X482844Y482570D01*
X482498Y482384D01*
X482128Y482225D01*
X481731Y482093D01*
X481305Y481987D01*
X480846Y481910D01*
X480356Y481862D01*
X479782Y481844D01*
X479681Y481799D01*
X475508D01*
X440799Y516508D01*
Y550821D01*
X440844Y550922D01*
X440862Y551496D01*
X440910Y551987D01*
X440987Y552445D01*
X441092Y552871D01*
X441225Y553268D01*
X441384Y553638D01*
X441569Y553984D01*
X441782Y554310D01*
X442025Y554618D01*
X442345Y554960D01*
X442452Y555242D01*
X442998Y555788D01*
X444034Y557582D01*
X444570Y559584D01*
Y561656D01*
X444034Y563658D01*
X442998Y565452D01*
X441532Y566918D01*
X439738Y567954D01*
X437736Y568490D01*
X435664D01*
X433662Y567954D01*
X431868Y566918D01*
X430402Y565452D01*
X430339Y565342D01*
X427339Y566146D01*
Y582019D01*
X427480Y582160D01*
X428506D01*
X430508Y582696D01*
X432302Y583732D01*
X433768Y585198D01*
X434804Y586992D01*
X435340Y588994D01*
Y589766D01*
X435464Y590040D01*
X435479Y590509D01*
X435526Y590898D01*
X435605Y591279D01*
X435719Y591655D01*
X435869Y592029D01*
X436056Y592404D01*
X436282Y592780D01*
X436552Y593158D01*
X436865Y593538D01*
X437258Y593957D01*
X437298Y594061D01*
X452198Y608961D01*
X633087D01*
X633218Y608868D01*
D02*
G37*
G36*
X551265Y423965D02*
X551371Y423222D01*
X551548Y422648D01*
X551796Y422246D01*
X552114Y422014D01*
X552503Y421953D01*
X552962Y422062D01*
X553493Y422343D01*
X554094Y422794D01*
X554766Y423416D01*
X550498Y412077D01*
X542695Y411345D01*
X543366Y412066D01*
X543967Y412817D01*
X544498Y413598D01*
X544957Y414407D01*
X545346Y415246D01*
X545664Y416114D01*
X545912Y417012D01*
X546089Y417939D01*
X546195Y418895D01*
X546230Y419880D01*
X551230Y424880D01*
X551265Y423965D01*
D02*
G37*
G36*
X508594Y401129D02*
X509061Y400744D01*
X509537Y400406D01*
X510023Y400113D01*
X510517Y399866D01*
X511021Y399665D01*
X511534Y399510D01*
X512055Y399400D01*
X512586Y399337D01*
X513126Y399320D01*
X506840Y393033D01*
X506823Y393574D01*
X506759Y394105D01*
X506650Y394627D01*
X506495Y395139D01*
X506294Y395643D01*
X506047Y396137D01*
X505754Y396623D01*
X505416Y397099D01*
X505031Y397566D01*
X504601Y398024D01*
X508136Y401559D01*
X508594Y401129D01*
D02*
G37*
G36*
X368029Y390539D02*
X368088Y389937D01*
X368185Y389361D01*
X368321Y388810D01*
X368496Y388286D01*
X368710Y387788D01*
X368963Y387316D01*
X369255Y386869D01*
X369585Y386449D01*
X369955Y386055D01*
X361065D01*
X361435Y386449D01*
X361765Y386869D01*
X362057Y387316D01*
X362310Y387788D01*
X362524Y388286D01*
X362699Y388810D01*
X362835Y389361D01*
X362932Y389937D01*
X362990Y390539D01*
X363010Y391167D01*
X368010D01*
X368029Y390539D01*
D02*
G37*
G36*
X280947Y307216D02*
X281010Y306685D01*
X281120Y306164D01*
X281275Y305651D01*
X281476Y305147D01*
X281723Y304653D01*
X282016Y304167D01*
X282354Y303691D01*
X282739Y303224D01*
X283169Y302766D01*
X279634Y299231D01*
X279176Y299661D01*
X278709Y300046D01*
X278233Y300384D01*
X277747Y300677D01*
X277253Y300924D01*
X276749Y301125D01*
X276236Y301280D01*
X275715Y301390D01*
X275184Y301453D01*
X274643Y301470D01*
X280930Y307757D01*
X280947Y307216D01*
D02*
G37*
G36*
X367171Y731511D02*
X366891Y731051D01*
X366645Y730571D01*
X366431Y730070D01*
X366251Y729549D01*
X366103Y729007D01*
X365988Y728445D01*
X365906Y727863D01*
X365856Y727260D01*
X365840Y726637D01*
X360840Y725855D01*
X360818Y726489D01*
X360754Y727089D01*
X360646Y727656D01*
X360495Y728190D01*
X360301Y728690D01*
X360063Y729157D01*
X359783Y729591D01*
X359459Y729991D01*
X359092Y730358D01*
X358683Y730691D01*
X367483Y731951D01*
X367171Y731511D01*
D02*
G37*
G36*
X365862Y663141D02*
X365926Y662541D01*
X366034Y661974D01*
X366185Y661440D01*
X366379Y660940D01*
X366617Y660473D01*
X366897Y660039D01*
X367221Y659639D01*
X367588Y659272D01*
X367997Y658939D01*
X359197Y657679D01*
X359509Y658119D01*
X359789Y658579D01*
X360035Y659059D01*
X360249Y659560D01*
X360429Y660081D01*
X360577Y660623D01*
X360692Y661185D01*
X360774Y661767D01*
X360824Y662370D01*
X360840Y662993D01*
X365840Y663775D01*
X365862Y663141D01*
D02*
G37*
G36*
X435484Y790169D02*
X434790Y789370D01*
X434179Y788571D01*
X433648Y787772D01*
X433200Y786973D01*
X432833Y786174D01*
X432547Y785376D01*
X432343Y784578D01*
X432221Y783780D01*
X432180Y782982D01*
X427180D01*
X427139Y783780D01*
X427017Y784578D01*
X426813Y785376D01*
X426527Y786174D01*
X426160Y786973D01*
X425712Y787772D01*
X425182Y788571D01*
X424570Y789370D01*
X423876Y790169D01*
X423101Y790968D01*
X436259D01*
X435484Y790169D01*
D02*
G37*
G36*
X416239Y641194D02*
X415809Y640736D01*
X415424Y640269D01*
X415086Y639793D01*
X414793Y639307D01*
X414546Y638813D01*
X414345Y638309D01*
X414190Y637797D01*
X414081Y637275D01*
X414017Y636744D01*
X414000Y636203D01*
X407714Y642490D01*
X408254Y642507D01*
X408785Y642570D01*
X409306Y642680D01*
X409819Y642835D01*
X410323Y643036D01*
X410817Y643283D01*
X411303Y643576D01*
X411779Y643914D01*
X412246Y644299D01*
X412704Y644729D01*
X416239Y641194D01*
D02*
G37*
D53*
X673540Y357760D02*
D03*
X818540Y332760D02*
D03*
X673540D02*
D03*
X818540Y382760D02*
D03*
D57*
X673540D02*
D03*
D60*
X558060Y756620D02*
D03*
X532660D02*
D03*
X545360Y743920D02*
D03*
D62*
X748540Y300760D02*
D03*
Y414760D02*
D03*
D63*
X413125Y278240D02*
X418045Y273320D01*
X645160D01*
X653480Y281640D01*
X645160Y273320D02*
X870170D01*
X908360Y311510D01*
X653480Y281640D02*
Y430723D01*
X123470Y668300D02*
X123700Y668070D01*
X123470Y668300D02*
Y730520D01*
X123610Y730380D01*
X136360D01*
X123470Y730520D02*
Y851460D01*
X137350Y865340D01*
X485740D01*
X643415Y571890D02*
X681469D01*
X689339Y564020D01*
X729476D01*
X635030Y568200D02*
X637377Y565853D01*
X635030Y568200D02*
Y598100D01*
X637377Y565853D02*
X643415Y571890D01*
X413125Y278240D02*
X548730Y413845D01*
X579120Y444235D01*
X304160Y278240D02*
X413125D01*
X579120Y444235D02*
Y507595D01*
X637377Y565853D01*
X427470Y590030D02*
X450500Y613060D01*
X423240Y450190D02*
Y583716D01*
X427470Y587946D02*
Y590030D01*
X423240Y583716D02*
X427470Y587946D01*
X365510Y381520D02*
Y392460D01*
X423240Y450190D01*
X473810Y477700D02*
X489480D01*
X436700Y514810D02*
X473810Y477700D01*
X436700Y514810D02*
Y560620D01*
X274580Y307820D02*
X304160Y278240D01*
X644340Y439863D02*
X653480Y430723D01*
X644340Y439863D02*
Y441170D01*
X908360Y311510D02*
Y511020D01*
X803930Y503300D02*
X837050Y536420D01*
X908360D01*
X589490Y503300D02*
X803930D01*
X435940Y470220D02*
Y486630D01*
Y470220D02*
X513190Y392970D01*
X548730Y413845D02*
Y558410D01*
X574770Y584450D01*
X324820Y613250D02*
X415714D01*
X422044Y619580D02*
X510855D01*
X489800Y629950D02*
Y733380D01*
X545360Y654085D02*
Y743920D01*
X415714Y613250D02*
X422044Y619580D01*
X510855D02*
X545360Y654085D01*
X450500Y613060D02*
X754890D01*
X780810Y587140D01*
X376440Y550500D02*
X412870D01*
X258130Y432190D02*
X376440Y550500D01*
X363340Y654720D02*
Y734910D01*
X362440Y735810D02*
X363340Y734910D01*
Y654720D02*
X364240Y653820D01*
X250920Y753690D02*
X374310D01*
X388070Y739930D01*
X531280Y797680D02*
X532520Y796440D01*
Y759320D02*
Y796440D01*
X407650Y636140D02*
X429680Y658170D01*
Y797680D01*
X455080Y768100D02*
Y797680D01*
Y768100D02*
X489800Y733380D01*
X529650Y653040D02*
Y715470D01*
X528980Y652370D02*
X529650Y653040D01*
X480480Y764640D02*
X529650Y715470D01*
X480480Y764640D02*
Y797680D01*
X226080Y771920D02*
X388370D01*
X406010Y754280D01*
X564200Y660070D02*
X616270D01*
X627420Y671220D01*
X722970D01*
D66*
X642400Y922590D02*
D03*
X654900D02*
D03*
X629900D02*
D03*
X667400D02*
D03*
X679900D02*
D03*
X692400D02*
D03*
X617400D02*
D03*
D67*
X346220Y897520D02*
D03*
X259720D02*
D03*
D68*
X346220Y939220D02*
D03*
X259720D02*
D03*
D69*
X150280Y797680D02*
D03*
D70*
X111880Y374930D02*
D03*
D71*
X908360Y561820D02*
D03*
Y587220D02*
D03*
Y536420D02*
D03*
D72*
X175680Y797680D02*
D03*
X531280D02*
D03*
X505880D02*
D03*
X378880D02*
D03*
X353480D02*
D03*
X328080D02*
D03*
X302680D02*
D03*
X201080D02*
D03*
X251880D02*
D03*
X404280D02*
D03*
X480480D02*
D03*
X226480D02*
D03*
X455080D02*
D03*
X277280D02*
D03*
X429680D02*
D03*
D73*
X274070Y902420D02*
D03*
X331870D02*
D03*
D74*
X845280Y487680D02*
D03*
Y797680D02*
D03*
X95280Y487680D02*
D03*
Y797680D02*
D03*
D75*
X908360Y511020D02*
D03*
D76*
X187880Y374930D02*
D03*
D77*
X635250Y273320D02*
D03*
X26000Y306000D02*
D03*
X61000Y376000D02*
D03*
X26000Y446000D02*
D03*
X61000Y516000D02*
D03*
X26000Y586000D02*
D03*
X61000Y656000D02*
D03*
X26000Y726000D02*
D03*
X61000Y796000D02*
D03*
X26000Y866000D02*
D03*
X96000Y306000D02*
D03*
Y446000D02*
D03*
X131000Y516000D02*
D03*
X96000Y586000D02*
D03*
Y726000D02*
D03*
Y866000D02*
D03*
X166000Y306000D02*
D03*
Y446000D02*
D03*
X201000Y656000D02*
D03*
X236000Y306000D02*
D03*
X271000Y656000D02*
D03*
X306000Y306000D02*
D03*
X341000Y376000D02*
D03*
X306000Y446000D02*
D03*
Y586000D02*
D03*
Y726000D02*
D03*
X411000Y516000D02*
D03*
X446000Y726000D02*
D03*
X516000Y306000D02*
D03*
Y866000D02*
D03*
X621000Y376000D02*
D03*
Y796000D02*
D03*
X586000Y866000D02*
D03*
X656000Y726000D02*
D03*
X691000Y796000D02*
D03*
X761000Y376000D02*
D03*
X726000Y726000D02*
D03*
X761000Y796000D02*
D03*
X796000Y306000D02*
D03*
Y446000D02*
D03*
X831000Y656000D02*
D03*
X796000Y726000D02*
D03*
X866000Y306000D02*
D03*
Y446000D02*
D03*
Y726000D02*
D03*
X901000Y796000D02*
D03*
X376000Y306000D02*
D03*
X516000Y586000D02*
D03*
Y446000D02*
D03*
X481000Y376000D02*
D03*
X123700Y668070D02*
D03*
X136360Y730380D02*
D03*
X485740Y865340D02*
D03*
X729476Y564020D02*
D03*
X635030Y598100D02*
D03*
X489480Y477700D02*
D03*
X436700Y560620D02*
D03*
X435940Y486630D02*
D03*
X589490Y503300D02*
D03*
X574770Y584450D02*
D03*
X274580Y307820D02*
D03*
X644340Y441170D02*
D03*
X489800Y629950D02*
D03*
X780810Y587140D02*
D03*
X427470Y590030D02*
D03*
X412870Y550500D02*
D03*
X513190Y392970D02*
D03*
X258130Y432190D02*
D03*
X365510Y381520D02*
D03*
X364240Y653820D02*
D03*
X362440Y735810D02*
D03*
X388070Y739930D02*
D03*
X250920Y753690D02*
D03*
X407650Y636140D02*
D03*
X528980Y652370D02*
D03*
X406010Y754280D02*
D03*
X226080Y771920D02*
D03*
X324820Y613250D02*
D03*
X564200Y660070D02*
D03*
X722970Y671220D02*
D03*
M02*
