G04*
G04 #@! TF.GenerationSoftware,Altium Limited,Altium Designer,25.7.1 (20)*
G04*
G04 Layer_Color=16711935*
%FSLAX44Y44*%
%MOMM*%
G71*
G04*
G04 #@! TF.SameCoordinates,C553E2C7-41F9-40DB-990B-6D54EA4AAFBF*
G04*
G04*
G04 #@! TF.FilePolarity,Negative*
G04*
G01*
G75*
%ADD46C,1.6000*%
%ADD47O,1.3000X2.4000*%
%ADD48O,1.3000X2.1000*%
%ADD49R,2.2796X2.2796*%
%ADD50C,2.9000*%
%ADD51C,1.7700*%
%ADD52C,1.8500*%
%ADD53C,1.5500*%
%ADD54C,2.2796*%
%ADD55C,1.0000*%
%ADD56C,3.2000*%
%ADD57R,1.5500X1.5500*%
%ADD58R,1.7700X1.7700*%
%ADD59R,2.9000X2.9000*%
%ADD60C,1.4500*%
%ADD61C,0.4000*%
G04:AMPARAMS|DCode=62|XSize=2.4mm|YSize=5mm|CornerRadius=1.2mm|HoleSize=0mm|Usage=FLASHONLY|Rotation=270.000|XOffset=0mm|YOffset=0mm|HoleType=Round|Shape=RoundedRectangle|*
%AMROUNDEDRECTD62*
21,1,2.4000,2.6000,0,0,270.0*
21,1,0.0000,5.0000,0,0,270.0*
1,1,2.4000,-1.3000,0.0000*
1,1,2.4000,-1.3000,0.0000*
1,1,2.4000,1.3000,0.0000*
1,1,2.4000,1.3000,0.0000*
%
%ADD62ROUNDEDRECTD62*%
D46*
X642400Y922590D02*
D03*
X654900D02*
D03*
X629900D02*
D03*
X667400D02*
D03*
X679900D02*
D03*
X692400D02*
D03*
X617400D02*
D03*
D47*
X346220Y897520D02*
D03*
X259720D02*
D03*
D48*
X346220Y939220D02*
D03*
X259720D02*
D03*
D49*
X150280Y797680D02*
D03*
D50*
X111880Y374930D02*
D03*
D51*
X908360Y561820D02*
D03*
Y587220D02*
D03*
Y536420D02*
D03*
D52*
X558060Y756620D02*
D03*
D53*
X673540Y357760D02*
D03*
X818540Y332760D02*
D03*
X673540D02*
D03*
X818540Y382760D02*
D03*
D54*
X175680Y797680D02*
D03*
X531280D02*
D03*
X505880D02*
D03*
X378880D02*
D03*
X353480D02*
D03*
X328080D02*
D03*
X302680D02*
D03*
X201080D02*
D03*
X251880D02*
D03*
X404280D02*
D03*
X480480D02*
D03*
X226480D02*
D03*
X455080D02*
D03*
X277280D02*
D03*
X429680D02*
D03*
D55*
X274070Y902420D02*
D03*
X331870D02*
D03*
D56*
X845280Y487680D02*
D03*
Y797680D02*
D03*
X95280Y487680D02*
D03*
Y797680D02*
D03*
D57*
X673540Y382760D02*
D03*
D58*
X908360Y511020D02*
D03*
D59*
X187880Y374930D02*
D03*
D60*
X532660Y756620D02*
D03*
X545360Y743920D02*
D03*
D61*
X37690Y268530D02*
D03*
X38710Y928270D02*
D03*
X927590Y929660D02*
D03*
X927410Y268000D02*
D03*
D62*
X748540Y300760D02*
D03*
Y414760D02*
D03*
M02*
