G04*
G04 #@! TF.GenerationSoftware,Altium Limited,Altium Designer,25.7.1 (20)*
G04*
G04 Layer_Color=8421504*
%FSLAX44Y44*%
%MOMM*%
G71*
G04*
G04 #@! TF.SameCoordinates,C553E2C7-41F9-40DB-990B-6D54EA4AAFBF*
G04*
G04*
G04 #@! TF.FilePolarity,Positive*
G04*
G01*
G75*
%ADD16R,1.7540X1.8062*%
%ADD17R,0.6000X1.1400*%
%ADD18R,1.8000X1.0000*%
%ADD19R,1.5000X2.0000*%
%ADD20R,1.0160X0.5000*%
%ADD21R,1.0000X1.8000*%
%ADD22R,1.5000X0.4500*%
%ADD23R,1.1000X1.3500*%
%ADD24R,1.0000X1.6000*%
%ADD25R,0.9500X1.7000*%
%ADD26R,1.8062X1.7540*%
G04:AMPARAMS|DCode=27|XSize=1.56mm|YSize=0.42mm|CornerRadius=0.0525mm|HoleSize=0mm|Usage=FLASHONLY|Rotation=0.000|XOffset=0mm|YOffset=0mm|HoleType=Round|Shape=RoundedRectangle|*
%AMROUNDEDRECTD27*
21,1,1.5600,0.3150,0,0,0.0*
21,1,1.4550,0.4200,0,0,0.0*
1,1,0.1050,0.7275,-0.1575*
1,1,0.1050,-0.7275,-0.1575*
1,1,0.1050,-0.7275,0.1575*
1,1,0.1050,0.7275,0.1575*
%
%ADD27ROUNDEDRECTD27*%
%ADD28R,0.8721X1.0043*%
%ADD29R,1.1500X1.7000*%
%ADD30R,1.3561X1.8582*%
G04:AMPARAMS|DCode=31|XSize=1.0043mm|YSize=0.8721mm|CornerRadius=0.4361mm|HoleSize=0mm|Usage=FLASHONLY|Rotation=270.000|XOffset=0mm|YOffset=0mm|HoleType=Round|Shape=RoundedRectangle|*
%AMROUNDEDRECTD31*
21,1,1.0043,0.0000,0,0,270.0*
21,1,0.1322,0.8721,0,0,270.0*
1,1,0.8721,0.0000,-0.0661*
1,1,0.8721,0.0000,0.0661*
1,1,0.8721,0.0000,0.0661*
1,1,0.8721,0.0000,-0.0661*
%
%ADD31ROUNDEDRECTD31*%
%ADD32R,0.3000X1.1400*%
%ADD33R,1.5000X1.0000*%
G04:AMPARAMS|DCode=34|XSize=1.0043mm|YSize=3.1821mm|CornerRadius=0.4369mm|HoleSize=0mm|Usage=FLASHONLY|Rotation=270.000|XOffset=0mm|YOffset=0mm|HoleType=Round|Shape=RoundedRectangle|*
%AMROUNDEDRECTD34*
21,1,1.0043,2.3084,0,0,270.0*
21,1,0.1306,3.1821,0,0,270.0*
1,1,0.8737,-1.1542,-0.0653*
1,1,0.8737,-1.1542,0.0653*
1,1,0.8737,1.1542,0.0653*
1,1,0.8737,1.1542,-0.0653*
%
%ADD34ROUNDEDRECTD34*%
%ADD35R,1.0000X1.5000*%
G04:AMPARAMS|DCode=36|XSize=1.5242mm|YSize=0.578mm|CornerRadius=0.289mm|HoleSize=0mm|Usage=FLASHONLY|Rotation=90.000|XOffset=0mm|YOffset=0mm|HoleType=Round|Shape=RoundedRectangle|*
%AMROUNDEDRECTD36*
21,1,1.5242,0.0000,0,0,90.0*
21,1,0.9463,0.5780,0,0,90.0*
1,1,0.5780,0.0000,0.4731*
1,1,0.5780,0.0000,-0.4731*
1,1,0.5780,0.0000,-0.4731*
1,1,0.5780,0.0000,0.4731*
%
%ADD36ROUNDEDRECTD36*%
%ADD37R,0.5780X1.5242*%
%ADD38R,1.8582X1.6038*%
%ADD39R,1.6038X1.8582*%
D16*
X588461Y350240D02*
D03*
X588771Y432080D02*
D03*
X564939Y350240D02*
D03*
X565249Y432080D02*
D03*
D17*
X334970Y891720D02*
D03*
X270970D02*
D03*
X278970D02*
D03*
X326970D02*
D03*
D18*
X845890Y356080D02*
D03*
X563860Y914630D02*
D03*
Y884630D02*
D03*
X845890Y386080D02*
D03*
D19*
X378150Y417880D02*
D03*
D20*
X393390Y415880D02*
D03*
X362910Y426040D02*
D03*
Y415880D02*
D03*
X393390Y426040D02*
D03*
Y405720D02*
D03*
X362910D02*
D03*
D21*
X452610Y413110D02*
D03*
X145930Y844870D02*
D03*
X611880Y681890D02*
D03*
X602590Y559070D02*
D03*
X175930Y844870D02*
D03*
X581880Y681890D02*
D03*
X422610Y413110D02*
D03*
X572590Y559070D02*
D03*
D22*
X530410Y550040D02*
D03*
Y569540D02*
D03*
X472410Y556540D02*
D03*
X530410Y530540D02*
D03*
Y563040D02*
D03*
X472410Y524040D02*
D03*
Y550040D02*
D03*
X530410Y537040D02*
D03*
X472410Y563040D02*
D03*
X530410Y511040D02*
D03*
Y517540D02*
D03*
Y524040D02*
D03*
Y543540D02*
D03*
Y556540D02*
D03*
X472410Y569540D02*
D03*
Y543540D02*
D03*
Y537040D02*
D03*
Y530540D02*
D03*
Y517540D02*
D03*
Y511040D02*
D03*
D23*
X286840Y518760D02*
D03*
X253840D02*
D03*
D24*
X244650Y729240D02*
D03*
X212650D02*
D03*
D25*
X661660Y535240D02*
D03*
X633660D02*
D03*
D26*
X425490Y924371D02*
D03*
Y900849D02*
D03*
D27*
X445960Y660920D02*
D03*
X503560Y680420D02*
D03*
X445960Y706420D02*
D03*
Y699920D02*
D03*
Y693420D02*
D03*
Y680420D02*
D03*
Y673920D02*
D03*
Y667420D02*
D03*
Y654420D02*
D03*
Y647920D02*
D03*
X503560D02*
D03*
Y654420D02*
D03*
Y660920D02*
D03*
Y667420D02*
D03*
Y673920D02*
D03*
Y686920D02*
D03*
Y693420D02*
D03*
Y699920D02*
D03*
Y706420D02*
D03*
X445960Y686920D02*
D03*
D28*
X223110Y582930D02*
D03*
D29*
X156010Y728670D02*
D03*
X187510D02*
D03*
D30*
X293049Y668270D02*
D03*
X767641Y704350D02*
D03*
X693221Y703510D02*
D03*
X662699D02*
D03*
X737119Y704350D02*
D03*
X687601Y594140D02*
D03*
X657079D02*
D03*
X759150Y592800D02*
D03*
X728628D02*
D03*
X323571Y668270D02*
D03*
D31*
X177310Y582930D02*
D03*
X200210D02*
D03*
D32*
X285470Y891720D02*
D03*
X290470D02*
D03*
X295470D02*
D03*
X300470D02*
D03*
X320470D02*
D03*
X315470D02*
D03*
X310470D02*
D03*
X305470D02*
D03*
D33*
X619360Y441710D02*
D03*
Y409710D02*
D03*
X629360Y335110D02*
D03*
X236610Y398830D02*
D03*
Y430830D02*
D03*
X629360Y303110D02*
D03*
D34*
X200210Y517030D02*
D03*
D35*
X559440Y309940D02*
D03*
X591440D02*
D03*
X592700Y393360D02*
D03*
X560700D02*
D03*
D36*
X757360Y633178D02*
D03*
X747860Y651382D02*
D03*
X685510Y636846D02*
D03*
X676010Y655050D02*
D03*
D37*
X738360Y633178D02*
D03*
X666510Y636846D02*
D03*
D38*
X396060Y345004D02*
D03*
Y374516D02*
D03*
D39*
X295248Y404190D02*
D03*
X324760D02*
D03*
M02*
